<?xml version="1.0" encoding="utf-8"?>
<!-- Generator: Adobe Illustrator 16.0.5, SVG Export Plug-In . SVG Version: 6.00 Build 0)  -->
<!DOCTYPE svg PUBLIC "-//W3C//DTD SVG 1.1//EN" "http://www.w3.org/Graphics/SVG/1.1/DTD/svg11.dtd">
<svg version="1.1" id="图层_1" xmlns="http://www.w3.org/2000/svg" xmlns:xlink="http://www.w3.org/1999/xlink" x="0px" y="0px"
	 width="1311px" height="177px" viewBox="0 0 1311 177" enable-background="new 0 0 1311 177" xml:space="preserve">
<g>
	<path d="M66.3310547,120.7880859c-0.8959961-3.9248047-2.5600586-6.7197266-4.9921875-8.3837891
		s-5.6108398-2.4960938-9.5361328-2.4960938c-2.7739258,0-5.1630859,0.5546875-7.1679688,1.6640625
		c-2.0058594,1.1103516-3.6586914,2.6025391-4.9599609,4.4794922c-1.3017578,1.8789062-2.2617188,4.0429688-2.8798828,6.4960938
		c-0.6191406,2.4541016-0.9282227,5.0458984-0.9282227,7.7763672c0,2.5595703,0.2661133,5.078125,0.800293,7.5517578
		c0.5327148,2.4755859,1.4179688,4.6835938,2.6557617,6.6240234c1.2373047,1.9423828,2.9008789,3.5097656,4.9921875,4.7041016
		c2.0898438,1.1953125,4.7138672,1.7919922,7.8720703,1.7919922c1.9619141,0,3.7539062-0.3203125,5.3759766-0.9599609
		c1.6210938-0.6396484,3.0400391-1.5253906,4.2558594-2.65625c1.2158203-1.1298828,2.2402344-2.4638672,3.0722656-4
		c0.831543-1.5361328,1.4609375-3.2207031,1.8876953-5.0556641h4.5439453
		c-0.5117188,2.21875-1.2587891,4.3203125-2.2397461,6.3037109c-0.9819336,1.984375-2.2719727,3.7236328-3.8720703,5.2158203
		c-1.6000977,1.4941406-3.5419922,2.6787109-5.8242188,3.5527344c-2.2827148,0.8740234-4.9599609,1.3115234-8.0317383,1.3115234
		c-3.5419922,0-6.5712891-0.6503906-9.0878906-1.9521484c-2.5180664-1.3007812-4.5761719-3.0605469-6.1762695-5.2792969
		s-2.7631836-4.7890625-3.487793-7.7119141c-0.7260742-2.9228516-1.0883789-6.0263672-1.0883789-9.3125
		c0-4.3935547,0.5444336-8.1279297,1.6323242-11.2001953c1.0878906-3.0712891,2.5917969-5.578125,4.5117188-7.5195312
		c1.9204102-1.9414062,4.1811523-3.3496094,6.7841797-4.2246094c2.6020508-0.8740234,5.4399414-1.3115234,8.512207-1.3115234
		c2.3457031,0,4.5327148,0.3095703,6.5595703,0.9277344c2.0263672,0.6191406,3.8183594,1.546875,5.3764648,2.7841797
		c1.5566406,1.2382812,2.8369141,2.7626953,3.8398438,4.5761719c1.0019531,1.8134766,1.6958008,3.9150391,2.0800781,6.3037109
		H66.3310547z"/>
	<path d="M83.2900391,153.4921875h-3.840332v-33.1523438h3.840332v6.2080078h0.1279297
		c1.065918-2.6445312,2.4418945-4.4892578,4.1279297-5.5361328c1.6850586-1.0449219,3.9140625-1.5673828,6.6879883-1.5673828
		v4.1601562c-2.1757812-0.0419922-3.9677734,0.2988281-5.3759766,1.0234375
		c-1.4082031,0.7265625-2.527832,1.7070312-3.3598633,2.9443359c-0.8320312,1.2382812-1.4082031,2.6992188-1.7280273,4.3837891
		c-0.3203125,1.6865234-0.4799805,3.4462891-0.4799805,5.2802734V153.4921875z"/>
	<path d="M102.9375,137.8125c0,1.7919922,0.2338867,3.4873047,0.7041016,5.0878906
		c0.46875,1.5996094,1.1616211,2.9863281,2.0795898,4.1601562c0.9169922,1.1738281,2.0800781,2.1113281,3.4882812,2.8154297
		c1.4077148,0.7041016,3.0288086,1.0566406,4.8637695,1.0566406c2.5170898,0,4.6723633-0.6611328,6.4643555-1.984375
		c1.7919922-1.3222656,2.9858398-3.2001953,3.5839844-5.6318359h4.2880859
		c-0.4702148,1.5791016-1.0883789,3.0400391-1.8564453,4.3837891c-0.7675781,1.34375-1.7280273,2.5175781-2.8798828,3.5195312
		c-1.1518555,1.0039062-2.5180664,1.7822266-4.0957031,2.3369141c-1.5791016,0.5537109-3.4140625,0.8320312-5.5043945,0.8320312
		c-2.6459961,0-4.9277344-0.4482422-6.8476562-1.3447266c-1.9199219-0.8955078-3.4990234-2.1220703-4.7363281-3.6796875
		c-1.237793-1.5566406-2.1547852-3.3916016-2.7519531-5.5039062c-0.5976562-2.1123047-0.8959961-4.3837891-0.8959961-6.8164062
		c0-2.4316406,0.3520508-4.7138672,1.0561523-6.8476562c0.7041016-2.1328125,1.7060547-4,3.0078125-5.6005859
		c1.3012695-1.5996094,2.8901367-2.8574219,4.7680664-3.7753906c1.8769531-0.9169922,4.0102539-1.3759766,6.3999023-1.3759766
		c4.5649414,0,8.1494141,1.5673828,10.7519531,4.7041016c2.6020508,3.1357422,3.8823242,7.6904297,3.840332,13.6640625H102.9375z
		 M124.5693359,134.6123047c0-1.6210938-0.2241211-3.1464844-0.671875-4.5761719
		c-0.4482422-1.4287109-1.1098633-2.6660156-1.9838867-3.7119141c-0.875-1.0449219-1.9741211-1.8769531-3.2963867-2.4960938
		c-1.3227539-0.6181641-2.8378906-0.9277344-4.5439453-0.9277344c-1.7070312,0-3.2109375,0.3193359-4.5117188,0.9599609
		c-1.3022461,0.6396484-2.4111328,1.4941406-3.328125,2.5595703c-0.9179688,1.0673828-1.6538086,2.3046875-2.2080078,3.7119141
		c-0.5551758,1.4082031-0.9179688,2.9023438-1.0878906,4.4804688H124.5693359z"/>
	<path d="M151.3852539,134.1640625c0.7250977-0.0849609,1.5893555-0.2128906,2.5922852-0.3837891
		c1.0019531-0.1699219,1.8237305-0.4052734,2.4638672-0.7041016c0.6401367-0.2978516,1.0341797-0.7998047,1.184082-1.5039062
		c0.1489258-0.7041016,0.2241211-1.3544922,0.2241211-1.9521484c0-1.9619141-0.6303711-3.5732422-1.8881836-4.8320312
		c-1.2587891-1.2578125-3.3818359-1.8876953-6.3681641-1.8876953c-1.3227539,0-2.5390625,0.1181641-3.6479492,0.3515625
		c-1.1098633,0.2353516-2.0800781,0.640625-2.9121094,1.2158203c-0.8320312,0.5761719-1.5146484,1.3447266-2.0478516,2.3046875
		c-0.5341797,0.9599609-0.8857422,2.1660156-1.0561523,3.6162109h-3.9038086
		c0.1279297-1.9628906,0.5761719-3.6376953,1.3442383-5.0244141c0.7675781-1.3857422,1.7597656-2.5166016,2.9755859-3.3916016
		c1.2163086-0.8740234,2.6240234-1.5146484,4.2241211-1.9208984c1.6000977-0.4042969,3.2958984-0.6074219,5.0878906-0.6074219
		c1.6640625,0,3.2324219,0.1816406,4.7041016,0.5439453c1.472168,0.3632812,2.7519531,0.9384766,3.8398438,1.7275391
		c1.0883789,0.7900391,1.9414062,1.8466797,2.5600586,3.1679688c0.6181641,1.3232422,0.9282227,2.9443359,0.9282227,4.8642578
		v18.0478516c0,1.4941406,0.2661133,2.4433594,0.7998047,2.8486328c0.5332031,0.4052734,1.6103516,0.3095703,3.2319336-0.2880859
		v3.0078125c-0.2988281,0.0859375-0.7358398,0.2128906-1.3120117,0.3837891
		c-0.5756836,0.1699219-1.1416016,0.2558594-1.6958008,0.2558594c-0.5981445,0-1.1738281-0.0634766-1.7280273-0.1914062
		c-0.6401367-0.0859375-1.1518555-0.2880859-1.5361328-0.6083984c-0.3837891-0.3203125-0.6938477-0.7041016-0.9277344-1.1523438
		c-0.2348633-0.4472656-0.3950195-0.9375-0.4799805-1.4716797c-0.0859375-0.5332031-0.1279297-1.0976562-0.1279297-1.6962891
		c-1.6220703,1.7919922-3.4780273,3.1582031-5.5683594,4.0966797c-2.0908203,0.9375-4.3515625,1.4082031-6.7836914,1.4082031
		c-1.4511719,0-2.8481445-0.1923828-4.1918945-0.5761719c-1.3442383-0.3847656-2.5283203-0.9814453-3.5522461-1.7919922
		s-1.8349609-1.8027344-2.4321289-2.9765625c-0.5976562-1.1728516-0.8959961-2.5693359-0.8959961-4.1914062
		c0-5.6328125,3.8613281-8.9599609,11.5839844-9.984375L151.3852539,134.1640625z M157.8496094,136.0839844
		c-1.6220703,0.6835938-3.2641602,1.1308594-4.9282227,1.34375c-1.6640625,0.2148438-3.328125,0.3847656-4.9921875,0.5126953
		c-2.9438477,0.2138672-5.237793,0.875-6.8798828,1.9833984c-1.6430664,1.1103516-2.4638672,2.7949219-2.4638672,5.0566406
		c0,1.0234375,0.2021484,1.9101562,0.6079102,2.6552734c0.4052734,0.7470703,0.9379883,1.3662109,1.6000977,1.8564453
		c0.6611328,0.4912109,1.4287109,0.8535156,2.3037109,1.0878906c0.8740234,0.2353516,1.7602539,0.3525391,2.65625,0.3525391
		c1.5361328,0,3.0288086-0.1923828,4.4799805-0.5761719c1.4501953-0.3837891,2.7412109-0.9707031,3.8720703-1.7607422
		c1.1298828-0.7880859,2.0371094-1.7919922,2.7197266-3.0078125c0.6821289-1.2158203,1.0244141-2.6552734,1.0244141-4.3193359
		V136.0839844z"/>
	<path d="M183.3852539,153.6201172c-0.4697266,0.0849609-1.0878906,0.234375-1.855957,0.4482422
		c-0.7680664,0.2128906-1.6220703,0.3203125-2.5600586,0.3203125c-1.9199219,0-3.3818359-0.4804688-4.3837891-1.4404297
		c-1.0029297-0.9599609-1.5039062-2.6767578-1.5039062-5.1523438v-24.2558594h-4.6723633v-3.2001953h4.6723633v-9.2158203h3.8398438
		v9.2158203h6.2080078v3.2001953h-6.2080078v22.7197266c0,0.8115234,0.0209961,1.515625,0.0639648,2.1123047
		c0.0419922,0.5976562,0.1699219,1.0878906,0.3842773,1.4716797c0.2128906,0.3847656,0.5439453,0.6621094,0.9916992,0.8320312
		c0.4482422,0.171875,1.0771484,0.2568359,1.8881836,0.2568359c0.5117188,0,1.0336914-0.0419922,1.5678711-0.1289062
		c0.5332031-0.0849609,1.0561523-0.1914062,1.5678711-0.3193359V153.6201172z"/>
	<path d="M191.8974609,137.8125c0,1.7919922,0.2338867,3.4873047,0.7041016,5.0878906
		c0.46875,1.5996094,1.1616211,2.9863281,2.0795898,4.1601562c0.9169922,1.1738281,2.0800781,2.1113281,3.4887695,2.8154297
		c1.4082031,0.7041016,3.0292969,1.0566406,4.8632812,1.0566406c2.5175781,0,4.671875-0.6611328,6.4648438-1.984375
		c1.7910156-1.3222656,2.984375-3.2001953,3.5839844-5.6318359h4.2871094
		c-0.4707031,1.5791016-1.0878906,3.0400391-1.8554688,4.3837891s-1.7285156,2.5175781-2.8808594,3.5195312
		c-1.1523438,1.0039062-2.5175781,1.7822266-4.0957031,2.3369141c-1.578125,0.5537109-3.4140625,0.8320312-5.5039062,0.8320312
		c-2.6464844,0-4.9277344-0.4482422-6.8476562-1.3447266c-1.9199219-0.8955078-3.4990234-2.1220703-4.7363281-3.6796875
		c-1.237793-1.5566406-2.1547852-3.3916016-2.7519531-5.5039062c-0.5976562-2.1123047-0.8959961-4.3837891-0.8959961-6.8164062
		c0-2.4316406,0.3520508-4.7138672,1.0561523-6.8476562c0.7041016-2.1328125,1.7060547-4,3.0078125-5.6005859
		c1.3012695-1.5996094,2.8901367-2.8574219,4.7680664-3.7753906c1.8764648-0.9169922,4.0092773-1.3759766,6.3999023-1.3759766
		c4.5644531,0,8.1484375,1.5673828,10.7519531,4.7041016c2.6015625,3.1357422,3.8828125,7.6904297,3.8398438,13.6640625H191.8974609
		z M213.5292969,134.6123047c0-1.6210938-0.2246094-3.1464844-0.671875-4.5761719
		c-0.4472656-1.4287109-1.109375-2.6660156-1.984375-3.7119141c-0.875-1.0449219-1.9746094-1.8769531-3.2949219-2.4960938
		c-1.3242188-0.6181641-2.8378906-0.9277344-4.5449219-0.9277344s-3.2109375,0.3193359-4.5117188,0.9599609
		c-1.3022461,0.6396484-2.4111328,1.4941406-3.328125,2.5595703c-0.9179688,1.0673828-1.6538086,2.3046875-2.2080078,3.7119141
		c-0.5551758,1.4082031-0.9179688,2.9023438-1.0878906,4.4804688H213.5292969z"/>
	<path d="M260.359375,133.2373047c1.2919922-0.1660156,2.15625-0.7070312,2.59375-1.6220703
		c0.25-0.5019531,0.375-1.2226562,0.375-2.1640625c0-1.9238281-0.6816406-3.3203125-2.0429688-4.1884766
		s-3.3105469-1.3017578-5.8476562-1.3017578c-2.9316406,0-5.0107422,0.7958984-6.2373047,2.3867188
		c-0.6865234,0.8798828-1.1328125,2.1884766-1.3408203,3.9257812h-5.25
		c0.1035156-4.1367188,1.4414062-7.0146484,4.0107422-8.6337891s5.5507812-2.4287109,8.9423828-2.4287109
		c3.9326172,0,7.1269531,0.75,9.5820312,2.25c2.4355469,1.5,3.6523438,3.8339844,3.6523438,7v19.2832031
		c0,0.5830078,0.1191406,1.0517578,0.359375,1.4052734c0.2392578,0.3535156,0.7441406,0.5302734,1.515625,0.5302734
		c0.25,0,0.53125-0.015625,0.84375-0.046875s0.6455078-0.078125,1-0.140625v4.15625c-0.875,0.25-1.5419922,0.40625-2,0.46875
		c-0.4589844,0.0625-1.0839844,0.09375-1.875,0.09375c-1.9375,0-3.34375-0.6875-4.21875-2.0625
		c-0.4589844-0.7285156-0.78125-1.7597656-0.96875-3.0927734c-1.1464844,1.5-2.7919922,2.8017578-4.9375,3.9052734
		c-2.1464844,1.1035156-4.5107422,1.65625-7.09375,1.65625c-3.1044922,0-5.640625-0.9414062-7.609375-2.8242188
		s-2.953125-4.2402344-2.953125-7.0703125c0-3.0996094,0.96875-5.5029297,2.90625-7.2089844s4.4785156-2.7578125,7.625-3.1523438
		L260.359375,133.2373047z M248.515625,148.4335938c1.1875,0.9355469,2.59375,1.4023438,4.21875,1.4023438
		c1.9785156,0,3.8955078-0.4570312,5.75-1.3730469c3.125-1.5175781,4.6875-4.0039062,4.6875-7.4570312v-4.5234375
		c-0.6865234,0.4394531-1.5703125,0.8046875-2.6503906,1.0976562c-1.0820312,0.2929688-2.1425781,0.5009766-3.1816406,0.625
		l-3.3994141,0.4375c-2.0380859,0.2705078-3.5693359,0.6972656-4.5966797,1.2792969
		c-1.7402344,0.9765625-2.609375,2.5351562-2.609375,4.6757812C246.734375,146.21875,247.328125,147.4980469,248.515625,148.4335938
		z"/>
	<path d="M300.125,121.8046875c2.3642578,1.8339844,3.7861328,4.9902344,4.265625,9.46875h-5.46875
		c-0.3339844-2.0625-1.09375-3.7753906-2.28125-5.140625c-1.1875-1.3642578-3.09375-2.046875-5.71875-2.046875
		c-3.5839844,0-6.1464844,1.7480469-7.6875,5.2441406c-1,2.2675781-1.5,5.0664062-1.5,8.3955078
		c0,3.3505859,0.7080078,6.1689453,2.125,8.4580078c1.4160156,2.2890625,3.6455078,3.4335938,6.6875,3.4335938
		c2.3330078,0,4.1816406-0.7109375,5.546875-2.1328125c1.3642578-1.4208984,2.3066406-3.3662109,2.828125-5.8359375h5.46875
		c-0.625,4.4375-2.1875,7.6826172-4.6875,9.734375c-2.5,2.0527344-5.6982422,3.078125-9.59375,3.078125
		c-4.375,0-7.8652344-1.5986328-10.46875-4.796875c-2.6044922-3.1972656-3.90625-7.1923828-3.90625-11.984375
		c0-5.875,1.4267578-10.4472656,4.28125-13.71875c2.8535156-3.2705078,6.4892578-4.90625,10.90625-4.90625
		C294.6923828,119.0546875,297.7597656,119.9716797,300.125,121.8046875z"/>
	<path d="M332.125,121.8046875c2.3642578,1.8339844,3.7861328,4.9902344,4.265625,9.46875h-5.46875
		c-0.3339844-2.0625-1.09375-3.7753906-2.28125-5.140625c-1.1875-1.3642578-3.09375-2.046875-5.71875-2.046875
		c-3.5839844,0-6.1464844,1.7480469-7.6875,5.2441406c-1,2.2675781-1.5,5.0664062-1.5,8.3955078
		c0,3.3505859,0.7080078,6.1689453,2.125,8.4580078c1.4160156,2.2890625,3.6455078,3.4335938,6.6875,3.4335938
		c2.3330078,0,4.1816406-0.7109375,5.546875-2.1328125c1.3642578-1.4208984,2.3066406-3.3662109,2.828125-5.8359375h5.46875
		c-0.625,4.4375-2.1875,7.6826172-4.6875,9.734375c-2.5,2.0527344-5.6982422,3.078125-9.59375,3.078125
		c-4.375,0-7.8652344-1.5986328-10.46875-4.796875c-2.6044922-3.1972656-3.90625-7.1923828-3.90625-11.984375
		c0-5.875,1.4267578-10.4472656,4.28125-13.71875c2.8535156-3.2705078,6.4892578-4.90625,10.90625-4.90625
		C326.6923828,119.0546875,329.7597656,119.9716797,332.125,121.8046875z"/>
	<path d="M362.6884766,120.9453125c2.2158203,1.1152344,3.9033203,2.5576172,5.0625,4.328125
		c1.1181641,1.6875,1.8632812,3.65625,2.2363281,5.90625c0.3310547,1.5419922,0.4970703,4,0.4970703,7.375h-24.34375
		c0.1035156,3.4052734,0.8994141,6.1367188,2.3876953,8.1953125c1.4882812,2.0566406,3.7929688,3.0859375,6.9140625,3.0859375
		c2.9150391,0,5.2402344-0.9726562,6.9765625-2.9199219c0.9716797-1.1289062,1.6601562-2.4375,2.0654297-3.9238281h5.53125
		c-0.1464844,1.2294922-0.6308594,2.5996094-1.453125,4.109375c-0.8232422,1.5107422-1.7412109,2.7451172-2.7539062,3.703125
		c-1.6953125,1.6669922-3.7949219,2.7910156-6.2958984,3.375c-1.3447266,0.3330078-2.8642578,0.5-4.5595703,0.5
		c-4.140625,0-7.6494141-1.515625-10.5273438-4.546875s-4.3164062-7.2753906-4.3164062-12.734375
		c0-5.375,1.4492188-9.7392578,4.3476562-13.09375c2.8984375-3.3535156,6.6875-5.03125,11.3671875-5.03125
		C358.1855469,119.2734375,360.4726562,119.8310547,362.6884766,120.9453125z M364.703125,134.0859375
		c-0.2275391-2.4375-0.7539062-4.3847656-1.5800781-5.84375c-1.5292969-2.7080078-4.0800781-4.0625-7.6542969-4.0625
		c-2.5615234,0-4.7099609,0.9326172-6.4453125,2.796875c-1.7353516,1.8652344-2.6542969,4.234375-2.7578125,7.109375H364.703125z"/>
	<path d="M377.609375,120.0234375h5.34375v4.75c1.5830078-1.9580078,3.2597656-3.3642578,5.03125-4.21875
		c1.7705078-0.8535156,3.7392578-1.28125,5.90625-1.28125c4.75,0,7.9580078,1.65625,9.625,4.96875
		c0.9160156,1.8125,1.375,4.40625,1.375,7.78125v21.46875h-5.71875v-21.09375c0-2.0410156-0.3027344-3.6875-0.90625-4.9375
		c-1-2.0830078-2.8125-3.125-5.4375-3.125c-1.3339844,0-2.4277344,0.1357422-3.28125,0.40625
		c-1.5419922,0.4589844-2.8964844,1.375-4.0625,2.75c-0.9375,1.1044922-1.546875,2.2451172-1.828125,3.421875
		c-0.28125,1.1777344-0.421875,2.859375-0.421875,5.046875v17.53125h-5.625V120.0234375z"/>
	<path d="M414.328125,110.6796875h5.6875v9.34375h5.34375v4.59375h-5.34375v21.84375
		c0,1.1669922,0.3955078,1.9482422,1.1875,2.34375c0.4375,0.2294922,1.1660156,0.34375,2.1875,0.34375
		c0.2705078,0,0.5625-0.0068359,0.875-0.0205078s0.6767578-0.0488281,1.09375-0.1044922v4.46875
		c-0.6464844,0.1875-1.3183594,0.3222656-2.015625,0.40625c-0.6982422,0.0830078-1.453125,0.125-2.265625,0.125
		c-2.625,0-4.40625-0.671875-5.34375-2.015625s-1.40625-3.0878906-1.40625-5.234375v-22.15625h-4.53125v-4.59375h4.53125
		V110.6796875z"/>
	<path d="M453.9316406,120.3398438h3.8398438v33.1523438h-3.8398438v-4.6083984
		c-0.5126953,0.5986328-1.0878906,1.2167969-1.7285156,1.8564453c-0.6396484,0.6396484-1.3759766,1.2265625-2.2080078,1.7597656
		c-0.8320312,0.5341797-1.8027344,0.9824219-2.9121094,1.34375c-1.109375,0.3623047-2.3896484,0.5449219-3.8398438,0.5449219
		c-2.21875,0-4.0751953-0.3105469-5.5673828-0.9287109c-1.4941406-0.6181641-2.6992188-1.4814453-3.6162109-2.5917969
		c-0.9179688-1.109375-1.5791016-2.4003906-1.984375-3.8720703c-0.40625-1.4716797-0.6074219-3.0820312-0.6074219-4.8320312
		v-21.8242188h3.8398438v21.7607422c0,2.8583984,0.6611328,5.0458984,1.9833984,6.5595703
		c1.3222656,1.5146484,3.4980469,2.2724609,6.5283203,2.2724609c1.578125,0,2.9970703-0.3095703,4.2558594-0.9287109
		c1.2578125-0.6181641,2.3144531-1.4814453,3.1679688-2.5917969c0.8535156-1.109375,1.5146484-2.4316406,1.984375-3.9677734
		c0.46875-1.5361328,0.7041016-3.2207031,0.7041016-5.0556641V120.3398438z"/>
	<path d="M482.2832031,134.1640625c0.7255859-0.0849609,1.5888672-0.2128906,2.5917969-0.3837891
		c1.0019531-0.1699219,1.8242188-0.4052734,2.4648438-0.7041016c0.6396484-0.2978516,1.0332031-0.7998047,1.1835938-1.5039062
		c0.1484375-0.7041016,0.2236328-1.3544922,0.2236328-1.9521484c0-1.9619141-0.6298828-3.5732422-1.8876953-4.8320312
		c-1.2587891-1.2578125-3.3818359-1.8876953-6.3681641-1.8876953c-1.3232422,0-2.5390625,0.1181641-3.6474609,0.3515625
		c-1.1103516,0.2353516-2.0800781,0.640625-2.9121094,1.2158203c-0.8320312,0.5761719-1.515625,1.3447266-2.0478516,2.3046875
		c-0.5341797,0.9599609-0.8867188,2.1660156-1.0566406,3.6162109h-3.9033203
		c0.1279297-1.9628906,0.5751953-3.6376953,1.34375-5.0244141c0.7675781-1.3857422,1.7597656-2.5166016,2.9755859-3.3916016
		c1.2158203-0.8740234,2.6240234-1.5146484,4.2246094-1.9208984c1.5996094-0.4042969,3.2958984-0.6074219,5.0878906-0.6074219
		c1.6640625,0,3.2314453,0.1816406,4.7041016,0.5439453c1.4716797,0.3632812,2.7519531,0.9384766,3.8398438,1.7275391
		c1.0878906,0.7900391,1.9404297,1.8466797,2.5595703,3.1679688c0.6181641,1.3232422,0.9277344,2.9443359,0.9277344,4.8642578
		v18.0478516c0,1.4941406,0.2666016,2.4433594,0.8007812,2.8486328c0.5322266,0.4052734,1.609375,0.3095703,3.2314453-0.2880859
		v3.0078125c-0.2988281,0.0859375-0.7353516,0.2128906-1.3115234,0.3837891
		c-0.5761719,0.1699219-1.1425781,0.2558594-1.6962891,0.2558594c-0.5976562,0-1.1738281-0.0634766-1.7275391-0.1914062
		c-0.640625-0.0859375-1.1523438-0.2880859-1.5361328-0.6083984c-0.3847656-0.3203125-0.6943359-0.7041016-0.9287109-1.1523438
		c-0.234375-0.4472656-0.3945312-0.9375-0.4794922-1.4716797c-0.0859375-0.5332031-0.1279297-1.0976562-0.1279297-1.6962891
		c-1.6220703,1.7919922-3.4785156,3.1582031-5.5683594,4.0966797c-2.0908203,0.9375-4.3515625,1.4082031-6.7841797,1.4082031
		c-1.4501953,0-2.8476562-0.1923828-4.1914062-0.5761719c-1.34375-0.3847656-2.5283203-0.9814453-3.5517578-1.7919922
		c-1.0244141-0.8105469-1.8359375-1.8027344-2.4326172-2.9765625c-0.5976562-1.1728516-0.8955078-2.5693359-0.8955078-4.1914062
		c0-5.6328125,3.8603516-8.9599609,11.5839844-9.984375L482.2832031,134.1640625z M488.7470703,136.0839844
		c-1.6220703,0.6835938-3.2636719,1.1308594-4.9277344,1.34375c-1.6640625,0.2148438-3.328125,0.3847656-4.9921875,0.5126953
		c-2.9433594,0.2138672-5.2373047,0.875-6.8798828,1.9833984c-1.6425781,1.1103516-2.4638672,2.7949219-2.4638672,5.0566406
		c0,1.0234375,0.2021484,1.9101562,0.6083984,2.6552734c0.4042969,0.7470703,0.9375,1.3662109,1.5996094,1.8564453
		c0.6611328,0.4912109,1.4287109,0.8535156,2.3037109,1.0878906c0.8740234,0.2353516,1.7597656,0.3525391,2.65625,0.3525391
		c1.5361328,0,3.0292969-0.1923828,4.4804688-0.5761719c1.4492188-0.3837891,2.7402344-0.9707031,3.8710938-1.7607422
		c1.1308594-0.7880859,2.0371094-1.7919922,2.7207031-3.0078125c0.6816406-1.2158203,1.0234375-2.6552734,1.0234375-4.3193359
		V136.0839844z"/>
	<path d="M514.2832031,153.6201172c-0.4697266,0.0849609-1.0878906,0.234375-1.8554688,0.4482422
		c-0.7685547,0.2128906-1.6220703,0.3203125-2.5605469,0.3203125c-1.9199219,0-3.3818359-0.4804688-4.3837891-1.4404297
		c-1.0029297-0.9599609-1.5039062-2.6767578-1.5039062-5.1523438v-24.2558594h-4.671875v-3.2001953h4.671875v-9.2158203h3.8398438
		v9.2158203h6.2080078v3.2001953h-6.2080078v22.7197266c0,0.8115234,0.0214844,1.515625,0.0644531,2.1123047
		c0.0419922,0.5976562,0.1699219,1.0878906,0.3837891,1.4716797c0.2128906,0.3847656,0.5439453,0.6621094,0.9921875,0.8320312
		c0.4472656,0.171875,1.0761719,0.2568359,1.8876953,0.2568359c0.5117188,0,1.0341797-0.0419922,1.5683594-0.1289062
		c0.5322266-0.0849609,1.0556641-0.1914062,1.5673828-0.3193359V153.6201172z"/>
	<path d="M522.7958984,137.8125c0,1.7919922,0.234375,3.4873047,0.7041016,5.0878906
		c0.4697266,1.5996094,1.1621094,2.9863281,2.0800781,4.1601562c0.9169922,1.1738281,2.0800781,2.1113281,3.4882812,2.8154297
		s3.0292969,1.0566406,4.8642578,1.0566406c2.5166016,0,4.671875-0.6611328,6.4638672-1.984375
		c1.7919922-1.3222656,2.9853516-3.2001953,3.5839844-5.6318359h4.2880859
		c-0.4707031,1.5791016-1.0878906,3.0400391-1.8564453,4.3837891c-0.7675781,1.34375-1.7275391,2.5175781-2.8798828,3.5195312
		c-1.1523438,1.0039062-2.5175781,1.7822266-4.0957031,2.3369141c-1.5791016,0.5537109-3.4140625,0.8320312-5.5039062,0.8320312
		c-2.6464844,0-4.9287109-0.4482422-6.8486328-1.3447266c-1.9199219-0.8955078-3.4990234-2.1220703-4.7353516-3.6796875
		c-1.2382812-1.5566406-2.1552734-3.3916016-2.7519531-5.5039062c-0.5986328-2.1123047-0.8964844-4.3837891-0.8964844-6.8164062
		c0-2.4316406,0.3525391-4.7138672,1.0556641-6.8476562c0.7041016-2.1328125,1.7060547-4,3.0087891-5.6005859
		c1.3007812-1.5996094,2.8896484-2.8574219,4.7675781-3.7753906c1.8769531-0.9169922,4.0097656-1.3759766,6.4003906-1.3759766
		c4.5644531,0,8.1484375,1.5673828,10.7519531,4.7041016c2.6015625,3.1357422,3.8818359,7.6904297,3.8398438,13.6640625H522.7958984
		z M544.4287109,134.6123047c0-1.6210938-0.2246094-3.1464844-0.6728516-4.5761719
		c-0.4472656-1.4287109-1.109375-2.6660156-1.9833984-3.7119141c-0.875-1.0449219-1.9746094-1.8769531-3.2958984-2.4960938
		c-1.3232422-0.6181641-2.8378906-0.9277344-4.5439453-0.9277344c-1.7070312,0-3.2109375,0.3193359-4.5126953,0.9599609
		c-1.3017578,0.6396484-2.4101562,1.4941406-3.3271484,2.5595703c-0.9189453,1.0673828-1.6542969,2.3046875-2.2080078,3.7119141
		c-0.5556641,1.4082031-0.9179688,2.9023438-1.0888672,4.4804688H544.4287109z"/>
	<path d="M581.6123047,107.4121094h3.8398438v46.0800781h-3.8398438v-5.8242188h-0.1279297
		c-0.5546875,1.1103516-1.2705078,2.0800781-2.1445312,2.9121094c-0.875,0.8320312-1.8349609,1.5263672-2.8798828,2.0800781
		c-1.0458984,0.5546875-2.1230469,0.9814453-3.2314453,1.2802734c-1.1103516,0.2978516-2.1982422,0.4482422-3.2646484,0.4482422
		c-2.6875,0-4.9707031-0.4482422-6.8476562-1.3447266c-1.8779297-0.8955078-3.4238281-2.1220703-4.6396484-3.6796875
		c-1.2158203-1.5566406-2.1025391-3.4023438-2.65625-5.5361328c-0.5546875-2.1328125-0.8320312-4.4160156-0.8320312-6.8476562
		c0-2.3046875,0.2978516-4.5224609,0.8964844-6.65625c0.5966797-2.1328125,1.5039062-4,2.7197266-5.5996094
		c1.2158203-1.6005859,2.7519531-2.8808594,4.6074219-3.8408203c1.8564453-0.9599609,4.0419922-1.4394531,6.5605469-1.4394531
		c2.3457031,0,4.5966797,0.5224609,6.7519531,1.5673828c2.1542969,1.046875,3.8496094,2.5927734,5.0878906,4.640625V107.4121094z
		 M581.6123047,136.7880859c0-1.8769531-0.2558594-3.6582031-0.7675781-5.34375
		c-0.5126953-1.6855469-1.2480469-3.1572266-2.2080078-4.4160156c-0.9599609-1.2578125-2.1347656-2.2607422-3.5205078-3.0078125
		c-1.3867188-0.7460938-2.9550781-1.1201172-4.7041016-1.1201172c-2.0058594,0-3.7333984,0.3945312-5.1835938,1.1835938
		c-1.4511719,0.7900391-2.6464844,1.8671875-3.5839844,3.2324219c-0.9394531,1.3662109-1.6220703,2.9550781-2.0478516,4.7675781
		c-0.4277344,1.8144531-0.5986328,3.7666016-0.5126953,5.8564453c0,2.0908203,0.2880859,3.9355469,0.8642578,5.5361328
		c0.5761719,1.5996094,1.3759766,2.9550781,2.4003906,4.0634766c1.0234375,1.1103516,2.2177734,1.9521484,3.5839844,2.5283203
		c1.3642578,0.5761719,2.8574219,0.8642578,4.4794922,0.8642578c1.7919922,0,3.3925781-0.3623047,4.7998047-1.0888672
		c1.4082031-0.7246094,2.5810547-1.7167969,3.5205078-2.9755859c0.9375-1.2578125,1.6533203-2.7519531,2.1435547-4.4794922
		C581.3662109,140.6601562,581.6123047,138.7939453,581.6123047,136.7880859z"/>
	<path d="M636.3945312,130.7724609c-0.6826172-2.4746094-1.8554688-4.4052734-3.5195312-5.7919922
		s-3.7763672-2.0800781-6.3359375-2.0800781c-1.9628906,0-3.6484375,0.40625-5.0566406,1.2158203
		c-1.4072266,0.8105469-2.5595703,1.8876953-3.4560547,3.2324219c-0.8955078,1.34375-1.5576172,2.8583984-1.9833984,4.5439453
		c-0.4267578,1.6855469-0.640625,3.3818359-0.640625,5.0878906c0,1.75,0.2021484,3.4560547,0.6083984,5.1201172
		c0.4052734,1.6640625,1.0556641,3.1572266,1.9521484,4.4794922c0.8955078,1.3232422,2.0478516,2.3789062,3.4560547,3.1679688
		c1.4082031,0.7900391,3.1142578,1.1845703,5.1201172,1.1845703c2.8574219,0,5.1513672-0.7890625,6.8798828-2.3681641
		c1.7275391-1.578125,2.8261719-3.7539062,3.2958984-6.5283203h4.0957031
		c-0.3417969,1.8349609-0.8857422,3.5097656-1.6318359,5.0244141c-0.7470703,1.5146484-1.7070312,2.8154297-2.8798828,3.9033203
		c-1.1738281,1.0878906-2.5712891,1.9316406-4.1923828,2.5283203c-1.6220703,0.5966797-3.4775391,0.8964844-5.5673828,0.8964844
		c-2.6464844,0-4.9287109-0.4482422-6.8486328-1.3447266c-1.9199219-0.8955078-3.4990234-2.1220703-4.7353516-3.6796875
		c-1.2382812-1.5566406-2.1552734-3.4023438-2.7519531-5.5361328c-0.5986328-2.1328125-0.8964844-4.4160156-0.8964844-6.8476562
		c0-2.3046875,0.3300781-4.5126953,0.9921875-6.6240234c0.6611328-2.1123047,1.6318359-3.9785156,2.9121094-5.6005859
		c1.2802734-1.6210938,2.8691406-2.9121094,4.7675781-3.8720703s4.0849609-1.4394531,6.5605469-1.4394531
		c3.8398438,0,6.9433594,0.9179688,9.3115234,2.7519531c2.3681641,1.8349609,3.8505859,4.6943359,4.4482422,8.5761719H636.3945312z"
		/>
	<path d="M648.4912109,153.4921875v-46.0800781h3.8398438v17.5361328c1.5361328-1.6210938,3.125-2.9443359,4.7675781-3.9677734
		c1.6425781-1.0244141,3.6162109-1.5361328,5.9199219-1.5361328c2.0478516,0,3.9462891,0.3515625,5.6962891,1.0556641
		c1.7490234,0.7041016,3.2207031,1.9316406,4.4160156,3.6806641c0.8095703,1.1943359,1.2900391,2.421875,1.4404297,3.6796875
		c0.1484375,1.2587891,0.2236328,2.5712891,0.2236328,3.9355469v21.6962891h-3.8398438v-21.6318359
		c0-2.9863281-0.6621094-5.2265625-1.984375-6.7197266c-1.3232422-1.4931641-3.5195312-2.2402344-6.5917969-2.2402344
		c-1.1953125,0-2.2832031,0.1816406-3.2636719,0.5439453c-0.9824219,0.3632812-1.8671875,0.8427734-2.65625,1.4394531
		c-0.7900391,0.5986328-1.4619141,1.2802734-2.0166016,2.0488281c-0.5546875,0.7675781-0.9814453,1.578125-1.2792969,2.4316406
		c-0.3837891,1.0673828-0.6191406,2.0908203-0.7041016,3.0722656c-0.0859375,0.9814453-0.1279297,2.0478516-0.1279297,3.1992188
		v17.8564453H648.4912109z"/>
	<path d="M699.3066406,134.1640625c0.7255859-0.0849609,1.5888672-0.2128906,2.5917969-0.3837891
		c1.0019531-0.1699219,1.8242188-0.4052734,2.4648438-0.7041016c0.6396484-0.2978516,1.0332031-0.7998047,1.1835938-1.5039062
		c0.1484375-0.7041016,0.2236328-1.3544922,0.2236328-1.9521484c0-1.9619141-0.6298828-3.5732422-1.8876953-4.8320312
		c-1.2587891-1.2578125-3.3818359-1.8876953-6.3681641-1.8876953c-1.3232422,0-2.5390625,0.1181641-3.6474609,0.3515625
		c-1.1103516,0.2353516-2.0800781,0.640625-2.9121094,1.2158203c-0.8320312,0.5761719-1.515625,1.3447266-2.0478516,2.3046875
		c-0.5341797,0.9599609-0.8867188,2.1660156-1.0566406,3.6162109h-3.9033203
		c0.1279297-1.9628906,0.5751953-3.6376953,1.34375-5.0244141c0.7675781-1.3857422,1.7597656-2.5166016,2.9755859-3.3916016
		c1.2158203-0.8740234,2.6240234-1.5146484,4.2246094-1.9208984c1.5996094-0.4042969,3.2958984-0.6074219,5.0878906-0.6074219
		c1.6640625,0,3.2314453,0.1816406,4.7041016,0.5439453c1.4716797,0.3632812,2.7519531,0.9384766,3.8398438,1.7275391
		c1.0878906,0.7900391,1.9404297,1.8466797,2.5595703,3.1679688c0.6181641,1.3232422,0.9277344,2.9443359,0.9277344,4.8642578
		v18.0478516c0,1.4941406,0.2666016,2.4433594,0.8007812,2.8486328c0.5322266,0.4052734,1.609375,0.3095703,3.2314453-0.2880859
		v3.0078125c-0.2988281,0.0859375-0.7353516,0.2128906-1.3115234,0.3837891
		c-0.5761719,0.1699219-1.1425781,0.2558594-1.6962891,0.2558594c-0.5976562,0-1.1738281-0.0634766-1.7275391-0.1914062
		c-0.640625-0.0859375-1.1523438-0.2880859-1.5361328-0.6083984c-0.3847656-0.3203125-0.6943359-0.7041016-0.9287109-1.1523438
		c-0.234375-0.4472656-0.3945312-0.9375-0.4794922-1.4716797c-0.0859375-0.5332031-0.1279297-1.0976562-0.1279297-1.6962891
		c-1.6220703,1.7919922-3.4785156,3.1582031-5.5683594,4.0966797c-2.0908203,0.9375-4.3515625,1.4082031-6.7841797,1.4082031
		c-1.4501953,0-2.8476562-0.1923828-4.1914062-0.5761719c-1.34375-0.3847656-2.5283203-0.9814453-3.5517578-1.7919922
		c-1.0244141-0.8105469-1.8359375-1.8027344-2.4326172-2.9765625c-0.5976562-1.1728516-0.8955078-2.5693359-0.8955078-4.1914062
		c0-5.6328125,3.8603516-8.9599609,11.5839844-9.984375L699.3066406,134.1640625z M705.7705078,136.0839844
		c-1.6220703,0.6835938-3.2636719,1.1308594-4.9277344,1.34375c-1.6640625,0.2148438-3.328125,0.3847656-4.9921875,0.5126953
		c-2.9433594,0.2138672-5.2373047,0.875-6.8798828,1.9833984c-1.6425781,1.1103516-2.4638672,2.7949219-2.4638672,5.0566406
		c0,1.0234375,0.2021484,1.9101562,0.6083984,2.6552734c0.4042969,0.7470703,0.9375,1.3662109,1.5996094,1.8564453
		c0.6611328,0.4912109,1.4287109,0.8535156,2.3037109,1.0878906c0.8740234,0.2353516,1.7597656,0.3525391,2.65625,0.3525391
		c1.5361328,0,3.0292969-0.1923828,4.4804688-0.5761719c1.4492188-0.3837891,2.7402344-0.9707031,3.8710938-1.7607422
		c1.1308594-0.7880859,2.0371094-1.7919922,2.7207031-3.0078125c0.6816406-1.2158203,1.0234375-2.6552734,1.0234375-4.3193359
		V136.0839844z"/>
	<path d="M723.6904297,153.4921875h-3.8398438v-33.1523438h3.8398438v6.2080078h0.1279297
		c1.0664062-2.6445312,2.4423828-4.4892578,4.1289062-5.5361328c1.6845703-1.0449219,3.9130859-1.5673828,6.6875-1.5673828
		v4.1601562c-2.1757812-0.0419922-3.9677734,0.2988281-5.3759766,1.0234375
		c-1.4082031,0.7265625-2.5283203,1.7070312-3.3603516,2.9443359c-0.8320312,1.2382812-1.4072266,2.6992188-1.7275391,4.3837891
		c-0.3203125,1.6865234-0.4804688,3.4462891-0.4804688,5.2802734V153.4921875z"/>
	<path d="M752.6191406,153.6201172c-0.4697266,0.0849609-1.0878906,0.234375-1.8554688,0.4482422
		c-0.7685547,0.2128906-1.6220703,0.3203125-2.5605469,0.3203125c-1.9199219,0-3.3818359-0.4804688-4.3837891-1.4404297
		c-1.0029297-0.9599609-1.5039062-2.6767578-1.5039062-5.1523438v-24.2558594h-4.671875v-3.2001953h4.671875v-9.2158203h3.8398438
		v9.2158203h6.2080078v3.2001953h-6.2080078v22.7197266c0,0.8115234,0.0214844,1.515625,0.0644531,2.1123047
		c0.0419922,0.5976562,0.1699219,1.0878906,0.3837891,1.4716797c0.2128906,0.3847656,0.5439453,0.6621094,0.9921875,0.8320312
		c0.4472656,0.171875,1.0761719,0.2568359,1.8876953,0.2568359c0.5117188,0,1.0341797-0.0419922,1.5683594-0.1289062
		c0.5322266-0.0849609,1.0556641-0.1914062,1.5673828-0.3193359V153.6201172z"/>
	<path d="M761.0019531,143.1240234c0.5976562,2.859375,1.6748047,4.875,3.2324219,6.0478516
		c1.5566406,1.1738281,3.7861328,1.7607422,6.6875,1.7607422c1.4082031,0,2.6240234-0.1708984,3.6484375-0.5126953
		c1.0244141-0.3408203,1.8662109-0.7998047,2.5283203-1.3759766c0.6611328-0.5761719,1.1621094-1.2255859,1.5039062-1.9521484
		c0.3408203-0.7246094,0.5117188-1.4921875,0.5117188-2.3037109c0-1.6210938-0.5234375-2.8261719-1.5683594-3.6162109
		c-1.0458984-0.7890625-2.3574219-1.4072266-3.9355469-1.8554688c-1.5791016-0.4482422-3.2861328-0.8320312-5.1201172-1.1523438
		c-1.8349609-0.3203125-3.5419922-0.7998047-5.1201172-1.4394531c-1.5791016-0.640625-2.890625-1.5576172-3.9355469-2.7519531
		c-1.0458984-1.1943359-1.5683594-2.8808594-1.5683594-5.0566406c0-2.7724609,1.0126953-5.0449219,3.0400391-6.8154297
		c2.0263672-1.7705078,4.8964844-2.65625,8.6083984-2.65625c3.5839844,0,6.4960938,0.7998047,8.7353516,2.3994141
		c2.2402344,1.6005859,3.5947266,4.2783203,4.0644531,8.0322266h-3.9042969
		c-0.3417969-2.5595703-1.3115234-4.3613281-2.9121094-5.4082031c-1.5996094-1.0449219-3.6162109-1.5673828-6.0478516-1.5673828
		s-4.2880859,0.5224609-5.5683594,1.5673828c-1.2792969,1.046875-1.9199219,2.4228516-1.9199219,4.1279297
		c0,1.4941406,0.5224609,2.6357422,1.5683594,3.4248047c1.0449219,0.7900391,2.3574219,1.4296875,3.9355469,1.9199219
		c1.578125,0.4912109,3.2851562,0.9277344,5.1201172,1.3115234c1.8339844,0.3837891,3.5410156,0.9287109,5.1201172,1.6318359
		c1.578125,0.7041016,2.890625,1.6542969,3.9365234,2.8486328c1.0449219,1.1943359,1.5673828,2.8583984,1.5673828,4.9921875
		c0,1.578125-0.3417969,2.9755859-1.0234375,4.1914062c-0.6835938,1.2158203-1.6220703,2.2304688-2.8164062,3.0400391
		c-1.1943359,0.8115234-2.6142578,1.4189453-4.2558594,1.8242188c-1.6425781,0.4052734-3.4462891,0.6083984-5.4082031,0.6083984
		c-1.9628906,0-3.7021484-0.2880859-5.2158203-0.8642578c-1.5146484-0.5761719-2.8056641-1.3759766-3.8720703-2.4003906
		c-1.0664062-1.0234375-1.8984375-2.2177734-2.4960938-3.5839844c-0.5976562-1.3652344-0.9384766-2.8369141-1.0234375-4.4160156
		H761.0019531z"/>
	<path d="M836.5869141,148.3720703l8.7041016-28.0322266h3.9042969l-10.7519531,33.1523438h-4.0957031l-7.2324219-27.8398438
		h-0.1279297l-7.3603516,27.8398438h-4.6074219l-10.1123047-33.1523438h3.8398438l8.5761719,28.2880859l7.6796875-28.2880859
		h4.2880859L836.5869141,148.3720703z"/>
	<path d="M855.1464844,113.1083984v-5.6962891h4.2236328v5.6962891H855.1464844z M855.3378906,153.4921875v-33.1523438h3.8408203
		v33.1523438H855.3378906z"/>
	<path d="M880.6171875,153.6201172c-0.4697266,0.0849609-1.0878906,0.234375-1.8554688,0.4482422
		c-0.7685547,0.2128906-1.6220703,0.3203125-2.5605469,0.3203125c-1.9199219,0-3.3818359-0.4804688-4.3837891-1.4404297
		c-1.0029297-0.9599609-1.5039062-2.6767578-1.5039062-5.1523438v-24.2558594h-4.671875v-3.2001953h4.671875v-9.2158203h3.8398438
		v9.2158203h6.2080078v3.2001953h-6.2080078v22.7197266c0,0.8115234,0.0214844,1.515625,0.0644531,2.1123047
		c0.0419922,0.5976562,0.1699219,1.0878906,0.3837891,1.4716797c0.2128906,0.3847656,0.5439453,0.6621094,0.9921875,0.8320312
		c0.4472656,0.171875,1.0761719,0.2568359,1.8876953,0.2568359c0.5117188,0,1.0341797-0.0419922,1.5683594-0.1289062
		c0.5322266-0.0849609,1.0556641-0.1914062,1.5673828-0.3193359V153.6201172z"/>
	<path d="M886.7607422,153.4921875v-46.0800781h3.8398438v17.5361328c1.5361328-1.6210938,3.125-2.9443359,4.7675781-3.9677734
		c1.6425781-1.0244141,3.6162109-1.5361328,5.9199219-1.5361328c2.0478516,0,3.9462891,0.3515625,5.6962891,1.0556641
		c1.7490234,0.7041016,3.2207031,1.9316406,4.4160156,3.6806641c0.8095703,1.1943359,1.2900391,2.421875,1.4404297,3.6796875
		c0.1484375,1.2587891,0.2236328,2.5712891,0.2236328,3.9355469v21.6962891h-3.8398438v-21.6318359
		c0-2.9863281-0.6621094-5.2265625-1.984375-6.7197266c-1.3232422-1.4931641-3.5195312-2.2402344-6.5917969-2.2402344
		c-1.1953125,0-2.2832031,0.1816406-3.2636719,0.5439453c-0.9824219,0.3632812-1.8671875,0.8427734-2.65625,1.4394531
		c-0.7900391,0.5986328-1.4619141,1.2802734-2.0166016,2.0488281c-0.5546875,0.7675781-0.9814453,1.578125-1.2792969,2.4316406
		c-0.3837891,1.0673828-0.6191406,2.0908203-0.7041016,3.0722656c-0.0859375,0.9814453-0.1279297,2.0478516-0.1279297,3.1992188
		v17.8564453H886.7607422z"/>
	<path d="M955.3691406,134.1640625c0.7255859-0.0849609,1.5888672-0.2128906,2.5917969-0.3837891
		c1.0019531-0.1699219,1.8242188-0.4052734,2.4648438-0.7041016c0.6396484-0.2978516,1.0332031-0.7998047,1.1835938-1.5039062
		c0.1484375-0.7041016,0.2236328-1.3544922,0.2236328-1.9521484c0-1.9619141-0.6298828-3.5732422-1.8876953-4.8320312
		c-1.2587891-1.2578125-3.3818359-1.8876953-6.3681641-1.8876953c-1.3232422,0-2.5390625,0.1181641-3.6474609,0.3515625
		c-1.1103516,0.2353516-2.0800781,0.640625-2.9121094,1.2158203c-0.8320312,0.5761719-1.515625,1.3447266-2.0478516,2.3046875
		c-0.5341797,0.9599609-0.8867188,2.1660156-1.0566406,3.6162109h-3.9033203
		c0.1279297-1.9628906,0.5751953-3.6376953,1.34375-5.0244141c0.7675781-1.3857422,1.7597656-2.5166016,2.9755859-3.3916016
		c1.2158203-0.8740234,2.6240234-1.5146484,4.2246094-1.9208984c1.5996094-0.4042969,3.2958984-0.6074219,5.0878906-0.6074219
		c1.6640625,0,3.2314453,0.1816406,4.7041016,0.5439453c1.4716797,0.3632812,2.7519531,0.9384766,3.8398438,1.7275391
		c1.0878906,0.7900391,1.9404297,1.8466797,2.5595703,3.1679688c0.6181641,1.3232422,0.9277344,2.9443359,0.9277344,4.8642578
		v18.0478516c0,1.4941406,0.2666016,2.4433594,0.8007812,2.8486328c0.5322266,0.4052734,1.609375,0.3095703,3.2314453-0.2880859
		v3.0078125c-0.2988281,0.0859375-0.7353516,0.2128906-1.3115234,0.3837891
		c-0.5761719,0.1699219-1.1425781,0.2558594-1.6962891,0.2558594c-0.5976562,0-1.1738281-0.0634766-1.7275391-0.1914062
		c-0.640625-0.0859375-1.1523438-0.2880859-1.5361328-0.6083984c-0.3847656-0.3203125-0.6943359-0.7041016-0.9287109-1.1523438
		c-0.234375-0.4472656-0.3945312-0.9375-0.4794922-1.4716797c-0.0859375-0.5332031-0.1279297-1.0976562-0.1279297-1.6962891
		c-1.6220703,1.7919922-3.4785156,3.1582031-5.5683594,4.0966797c-2.0908203,0.9375-4.3515625,1.4082031-6.7841797,1.4082031
		c-1.4501953,0-2.8476562-0.1923828-4.1914062-0.5761719c-1.34375-0.3847656-2.5283203-0.9814453-3.5517578-1.7919922
		c-1.0244141-0.8105469-1.8359375-1.8027344-2.4326172-2.9765625c-0.5976562-1.1728516-0.8955078-2.5693359-0.8955078-4.1914062
		c0-5.6328125,3.8603516-8.9599609,11.5839844-9.984375L955.3691406,134.1640625z M961.8330078,136.0839844
		c-1.6220703,0.6835938-3.2636719,1.1308594-4.9277344,1.34375c-1.6640625,0.2148438-3.328125,0.3847656-4.9921875,0.5126953
		c-2.9433594,0.2138672-5.2373047,0.875-6.8798828,1.9833984c-1.6425781,1.1103516-2.4638672,2.7949219-2.4638672,5.0566406
		c0,1.0234375,0.2021484,1.9101562,0.6083984,2.6552734c0.4042969,0.7470703,0.9375,1.3662109,1.5996094,1.8564453
		c0.6611328,0.4912109,1.4287109,0.8535156,2.3037109,1.0878906c0.8740234,0.2353516,1.7597656,0.3525391,2.65625,0.3525391
		c1.5361328,0,3.0292969-0.1923828,4.4804688-0.5761719c1.4492188-0.3837891,2.7402344-0.9707031,3.8710938-1.7607422
		c1.1308594-0.7880859,2.0371094-1.7919922,2.7207031-3.0078125c0.6816406-1.2158203,1.0234375-2.6552734,1.0234375-4.3193359
		V136.0839844z"/>
	<path d="M990.1845703,123.5400391v-3.2001953h4.9277344v-5.2480469c0-2.6445312,0.5332031-4.7353516,1.5996094-6.2714844
		s2.8808594-2.3037109,5.4404297-2.3037109c0.5966797,0,1.1523438,0.0214844,1.6640625,0.0634766
		c0.5117188,0.0429688,1.0234375,0.1074219,1.5361328,0.1923828v3.5195312
		c-0.8544922-0.2128906-1.6220703-0.3193359-2.3046875-0.3193359c-0.9814453,0-1.75,0.1816406-2.3037109,0.5439453
		c-0.5546875,0.3623047-0.9599609,0.8427734-1.2158203,1.4394531c-0.2558594,0.5976562-0.4160156,1.2705078-0.4804688,2.0166016
		c-0.0634766,0.7460938-0.0957031,1.5039062-0.0957031,2.2714844v4.0957031h6.4003906v3.2001953h-6.4003906v29.9521484h-3.8398438
		v-29.9521484H990.1845703z"/>
	<path d="M1013.6728516,137.8125c0,1.7919922,0.234375,3.4873047,0.7041016,5.0878906
		c0.4697266,1.5996094,1.1621094,2.9863281,2.0800781,4.1601562c0.9169922,1.1738281,2.0800781,2.1113281,3.4882812,2.8154297
		s3.0292969,1.0566406,4.8642578,1.0566406c2.5166016,0,4.671875-0.6611328,6.4638672-1.984375
		c1.7919922-1.3222656,2.9853516-3.2001953,3.5839844-5.6318359h4.2880859
		c-0.4707031,1.5791016-1.0878906,3.0400391-1.8564453,4.3837891c-0.7675781,1.34375-1.7275391,2.5175781-2.8798828,3.5195312
		c-1.1523438,1.0039062-2.5175781,1.7822266-4.0957031,2.3369141c-1.5791016,0.5537109-3.4140625,0.8320312-5.5039062,0.8320312
		c-2.6464844,0-4.9287109-0.4482422-6.8486328-1.3447266c-1.9199219-0.8955078-3.4990234-2.1220703-4.7353516-3.6796875
		c-1.2382812-1.5566406-2.1552734-3.3916016-2.7519531-5.5039062c-0.5986328-2.1123047-0.8964844-4.3837891-0.8964844-6.8164062
		c0-2.4316406,0.3525391-4.7138672,1.0556641-6.8476562c0.7041016-2.1328125,1.7060547-4,3.0087891-5.6005859
		c1.3007812-1.5996094,2.8896484-2.8574219,4.7675781-3.7753906c1.8769531-0.9169922,4.0097656-1.3759766,6.4003906-1.3759766
		c4.5644531,0,8.1484375,1.5673828,10.7519531,4.7041016c2.6015625,3.1357422,3.8818359,7.6904297,3.8398438,13.6640625
		H1013.6728516z M1035.3056641,134.6123047c0-1.6210938-0.2246094-3.1464844-0.6728516-4.5761719
		c-0.4472656-1.4287109-1.109375-2.6660156-1.9833984-3.7119141c-0.875-1.0449219-1.9746094-1.8769531-3.2958984-2.4960938
		c-1.3232422-0.6181641-2.8378906-0.9277344-4.5439453-0.9277344c-1.7070312,0-3.2109375,0.3193359-4.5126953,0.9599609
		c-1.3017578,0.6396484-2.4101562,1.4941406-3.3271484,2.5595703c-0.9189453,1.0673828-1.6542969,2.3046875-2.2080078,3.7119141
		c-0.5556641,1.4082031-0.9179688,2.9023438-1.0888672,4.4804688H1035.3056641z"/>
	<path d="M1074.9208984,148.3720703l8.7041016-28.0322266h3.9042969l-10.7519531,33.1523438h-4.0957031l-7.2324219-27.8398438
		h-0.1279297l-7.3603516,27.8398438h-4.6074219l-10.1123047-33.1523438h3.8398438l8.5761719,28.2880859l7.6796875-28.2880859
		H1067.625L1074.9208984,148.3720703z"/>
	<path d="M1134.375,130.7724609c-0.6826172-2.4746094-1.8554688-4.4052734-3.5195312-5.7919922
		s-3.7763672-2.0800781-6.3359375-2.0800781c-1.9628906,0-3.6484375,0.40625-5.0566406,1.2158203
		c-1.4072266,0.8105469-2.5595703,1.8876953-3.4560547,3.2324219c-0.8955078,1.34375-1.5576172,2.8583984-1.9833984,4.5439453
		c-0.4267578,1.6855469-0.640625,3.3818359-0.640625,5.0878906c0,1.75,0.2021484,3.4560547,0.6083984,5.1201172
		c0.4052734,1.6640625,1.0556641,3.1572266,1.9521484,4.4794922c0.8955078,1.3232422,2.0478516,2.3789062,3.4560547,3.1679688
		c1.4082031,0.7900391,3.1142578,1.1845703,5.1201172,1.1845703c2.8574219,0,5.1513672-0.7890625,6.8798828-2.3681641
		c1.7275391-1.578125,2.8261719-3.7539062,3.2958984-6.5283203h4.0957031
		c-0.3417969,1.8349609-0.8857422,3.5097656-1.6318359,5.0244141c-0.7470703,1.5146484-1.7070312,2.8154297-2.8798828,3.9033203
		c-1.1738281,1.0878906-2.5712891,1.9316406-4.1923828,2.5283203c-1.6220703,0.5966797-3.4775391,0.8964844-5.5673828,0.8964844
		c-2.6464844,0-4.9287109-0.4482422-6.8486328-1.3447266c-1.9199219-0.8955078-3.4990234-2.1220703-4.7353516-3.6796875
		c-1.2382812-1.5566406-2.1552734-3.4023438-2.7519531-5.5361328c-0.5986328-2.1328125-0.8964844-4.4160156-0.8964844-6.8476562
		c0-2.3046875,0.3300781-4.5126953,0.9921875-6.6240234c0.6611328-2.1123047,1.6318359-3.9785156,2.9121094-5.6005859
		c1.2802734-1.6210938,2.8691406-2.9121094,4.7675781-3.8720703s4.0849609-1.4394531,6.5605469-1.4394531
		c3.8398438,0,6.9433594,0.9179688,9.3115234,2.7519531c2.3681641,1.8349609,3.8505859,4.6943359,4.4482422,8.5761719H1134.375z"/>
	<path d="M1147.046875,153.4921875v-46.0800781h3.8408203v46.0800781H1147.046875z"/>
	<path d="M1161.0625,113.1083984v-5.6962891h4.2236328v5.6962891H1161.0625z M1161.2539062,153.4921875v-33.1523438h3.8408203
		v33.1523438H1161.2539062z"/>
	<path d="M1198.3730469,130.7724609c-0.6826172-2.4746094-1.8554688-4.4052734-3.5195312-5.7919922
		s-3.7763672-2.0800781-6.3359375-2.0800781c-1.9628906,0-3.6484375,0.40625-5.0566406,1.2158203
		c-1.4072266,0.8105469-2.5595703,1.8876953-3.4560547,3.2324219c-0.8955078,1.34375-1.5576172,2.8583984-1.9833984,4.5439453
		c-0.4267578,1.6855469-0.640625,3.3818359-0.640625,5.0878906c0,1.75,0.2021484,3.4560547,0.6083984,5.1201172
		c0.4052734,1.6640625,1.0556641,3.1572266,1.9521484,4.4794922c0.8955078,1.3232422,2.0478516,2.3789062,3.4560547,3.1679688
		c1.4082031,0.7900391,3.1142578,1.1845703,5.1201172,1.1845703c2.8574219,0,5.1513672-0.7890625,6.8798828-2.3681641
		c1.7275391-1.578125,2.8261719-3.7539062,3.2958984-6.5283203h4.0957031
		c-0.3417969,1.8349609-0.8857422,3.5097656-1.6318359,5.0244141c-0.7470703,1.5146484-1.7070312,2.8154297-2.8798828,3.9033203
		c-1.1738281,1.0878906-2.5712891,1.9316406-4.1923828,2.5283203c-1.6220703,0.5966797-3.4775391,0.8964844-5.5673828,0.8964844
		c-2.6464844,0-4.9287109-0.4482422-6.8486328-1.3447266c-1.9199219-0.8955078-3.4990234-2.1220703-4.7353516-3.6796875
		c-1.2382812-1.5566406-2.1552734-3.4023438-2.7519531-5.5361328c-0.5986328-2.1328125-0.8964844-4.4160156-0.8964844-6.8476562
		c0-2.3046875,0.3300781-4.5126953,0.9921875-6.6240234c0.6611328-2.1123047,1.6318359-3.9785156,2.9121094-5.6005859
		c1.2802734-1.6210938,2.8691406-2.9121094,4.7675781-3.8720703s4.0849609-1.4394531,6.5605469-1.4394531
		c3.8398438,0,6.9433594,0.9179688,9.3115234,2.7519531c2.3681641,1.8349609,3.8505859,4.6943359,4.4482422,8.5761719H1198.3730469z
		"/>
	<path d="M1210.2128906,153.4921875v-46.0800781h3.8408203v28.671875l16.2558594-15.7441406h5.2480469l-12.4160156,11.96875
		l13.8876953,21.1835938h-4.2880859l-12.4160156-18.4960938l-6.2714844,5.9521484v12.5439453H1210.2128906z"/>
	<path d="M1244.7089844,143.1240234c0.5976562,2.859375,1.6748047,4.875,3.2324219,6.0478516
		c1.5566406,1.1738281,3.7861328,1.7607422,6.6875,1.7607422c1.4082031,0,2.6240234-0.1708984,3.6484375-0.5126953
		c1.0244141-0.3408203,1.8662109-0.7998047,2.5283203-1.3759766c0.6611328-0.5761719,1.1621094-1.2255859,1.5039062-1.9521484
		c0.3408203-0.7246094,0.5117188-1.4921875,0.5117188-2.3037109c0-1.6210938-0.5234375-2.8261719-1.5683594-3.6162109
		c-1.0458984-0.7890625-2.3574219-1.4072266-3.9355469-1.8554688c-1.5791016-0.4482422-3.2861328-0.8320312-5.1201172-1.1523438
		c-1.8349609-0.3203125-3.5419922-0.7998047-5.1201172-1.4394531c-1.5791016-0.640625-2.890625-1.5576172-3.9355469-2.7519531
		c-1.0458984-1.1943359-1.5683594-2.8808594-1.5683594-5.0566406c0-2.7724609,1.0126953-5.0449219,3.0400391-6.8154297
		c2.0263672-1.7705078,4.8964844-2.65625,8.6083984-2.65625c3.5839844,0,6.4960938,0.7998047,8.7353516,2.3994141
		c2.2402344,1.6005859,3.5947266,4.2783203,4.0644531,8.0322266h-3.9042969
		c-0.3417969-2.5595703-1.3115234-4.3613281-2.9121094-5.4082031c-1.5996094-1.0449219-3.6162109-1.5673828-6.0478516-1.5673828
		s-4.2880859,0.5224609-5.5683594,1.5673828c-1.2792969,1.046875-1.9199219,2.4228516-1.9199219,4.1279297
		c0,1.4941406,0.5224609,2.6357422,1.5683594,3.4248047c1.0449219,0.7900391,2.3574219,1.4296875,3.9355469,1.9199219
		c1.578125,0.4912109,3.2851562,0.9277344,5.1201172,1.3115234c1.8339844,0.3837891,3.5410156,0.9287109,5.1201172,1.6318359
		c1.578125,0.7041016,2.890625,1.6542969,3.9365234,2.8486328c1.0449219,1.1943359,1.5673828,2.8583984,1.5673828,4.9921875
		c0,1.578125-0.3417969,2.9755859-1.0234375,4.1914062c-0.6835938,1.2158203-1.6220703,2.2304688-2.8164062,3.0400391
		c-1.1943359,0.8115234-2.6142578,1.4189453-4.2558594,1.8242188c-1.6425781,0.4052734-3.4462891,0.6083984-5.4082031,0.6083984
		c-1.9628906,0-3.7021484-0.2880859-5.2158203-0.8642578c-1.5146484-0.5761719-2.8056641-1.3759766-3.8720703-2.4003906
		c-1.0664062-1.0234375-1.8984375-2.2177734-2.4960938-3.5839844c-0.5976562-1.3652344-0.9384766-2.8369141-1.0234375-4.4160156
		H1244.7089844z"/>
	<path d="M1276.3896484,153.4921875v-5.6318359h4.671875v5.6318359H1276.3896484z"/>
</g>
<g>
	<path fill="#FF7F0E" d="M438.5058594,46.2612305c1.2915039-0.1660156,2.15625-0.7070312,2.59375-1.6220703
		c0.2495117-0.5019531,0.3745117-1.2226562,0.3745117-2.1640625c0-1.9238281-0.6811523-3.3203125-2.0429688-4.1884766
		s-3.3110352-1.3017578-5.847168-1.3017578c-2.9316406,0-5.0112305,0.7958984-6.237793,2.3867188
		c-0.6860352,0.8798828-1.1328125,2.1884766-1.3408203,3.9257812h-5.25c0.1040039-4.1367188,1.440918-7.0146484,4.0107422-8.6337891
		s5.5507812-2.4287109,8.9423828-2.4287109c3.9326172,0,7.1269531,0.75,9.5825195,2.25
		c2.4345703,1.5,3.6518555,3.8339844,3.6518555,7v19.2832031c0,0.5830078,0.1196289,1.0517578,0.359375,1.4052734
		c0.2392578,0.3535156,0.7446289,0.5302734,1.515625,0.5302734c0.25,0,0.53125-0.015625,0.84375-0.046875
		s0.6455078-0.078125,1-0.140625v4.15625c-0.875,0.25-1.5419922,0.40625-2,0.46875
		c-0.4584961,0.0625-1.0834961,0.09375-1.875,0.09375c-1.9375,0-3.34375-0.6875-4.21875-2.0625
		c-0.4584961-0.7285156-0.78125-1.7597656-0.96875-3.0927734c-1.1459961,1.5-2.7919922,2.8017578-4.9375,3.9052734
		c-2.1459961,1.1035156-4.5107422,1.65625-7.09375,1.65625c-3.1044922,0-5.640625-0.9414062-7.609375-2.8242188
		s-2.953125-4.2402344-2.953125-7.0703125c0-3.0996094,0.96875-5.5029297,2.90625-7.2089844s4.4790039-2.7578125,7.625-3.1523438
		L438.5058594,46.2612305z M426.6616211,61.4575195c1.1875,0.9355469,2.59375,1.4023438,4.21875,1.4023438
		c1.9790039,0,3.8955078-0.4570312,5.75-1.3730469c3.125-1.5175781,4.6875-4.0039062,4.6875-7.4570312v-4.5234375
		c-0.6865234,0.4394531-1.5698242,0.8046875-2.6508789,1.0976562s-2.1416016,0.5009766-3.1811523,0.625l-3.3994141,0.4375
		c-2.0375977,0.2705078-3.5698242,0.6972656-4.5966797,1.2792969c-1.7397461,0.9765625-2.609375,2.5351562-2.609375,4.6757812
		C424.8803711,59.2426758,425.4741211,60.5219727,426.6616211,61.4575195z"/>
	<path fill="#FF7F0E" d="M456.1616211,33.0473633h5.34375v4.75c1.5830078-1.9580078,3.2602539-3.3642578,5.03125-4.21875
		c1.7705078-0.8535156,3.7392578-1.28125,5.90625-1.28125c4.75,0,7.9580078,1.65625,9.625,4.96875
		c0.9165039,1.8125,1.375,4.40625,1.375,7.78125v21.46875h-5.71875v-21.09375c0-2.0410156-0.3022461-3.6875-0.90625-4.9375
		c-1-2.0830078-2.8125-3.125-5.4375-3.125c-1.3334961,0-2.4272461,0.1357422-3.28125,0.40625
		c-1.5419922,0.4589844-2.8959961,1.375-4.0625,2.75c-0.9375,1.1044922-1.546875,2.2451172-1.828125,3.421875
		c-0.28125,1.1777344-0.421875,2.859375-0.421875,5.046875v17.53125h-5.625V33.0473633z"/>
	<path fill="#FF7F0E" d="M491.7553711,33.0473633h5.34375v4.75c1.5830078-1.9580078,3.2602539-3.3642578,5.03125-4.21875
		c1.7705078-0.8535156,3.7392578-1.28125,5.90625-1.28125c4.75,0,7.9580078,1.65625,9.625,4.96875
		c0.9165039,1.8125,1.375,4.40625,1.375,7.78125v21.46875h-5.71875v-21.09375c0-2.0410156-0.3022461-3.6875-0.90625-4.9375
		c-1-2.0830078-2.8125-3.125-5.4375-3.125c-1.3334961,0-2.4272461,0.1357422-3.28125,0.40625
		c-1.5419922,0.4589844-2.8959961,1.375-4.0625,2.75c-0.9375,1.1044922-1.546875,2.2451172-1.828125,3.421875
		c-0.28125,1.1777344-0.421875,2.859375-0.421875,5.046875v17.53125h-5.625V33.0473633z"/>
	<path fill="#FF7F0E" d="M551.5991211,36.387207c2.9580078,2.8730469,4.4375,7.0976562,4.4375,12.6757812
		c0,5.3925781-1.3037109,9.8466797-3.9101562,13.3642578s-6.6508789,5.2763672-12.1328125,5.2763672
		c-4.5722656,0-8.2026367-1.5556641-10.8920898-4.6679688c-2.6894531-3.1113281-4.0336914-7.2900391-4.0336914-12.5351562
		c0-5.6210938,1.4169922-10.0957031,4.2509766-13.4257812s6.640625-4.9960938,11.4194336-4.9960938
		C545.0205078,32.0786133,548.640625,33.5151367,551.5991211,36.387207z M548.1064453,58.6313477
		c1.3701172-2.8203125,2.0551758-5.9570312,2.0551758-9.4111328c0-3.1210938-0.4946289-5.6591797-1.4833984-7.6162109
		c-1.5654297-3.0791016-4.2641602-4.6191406-8.0957031-4.6191406c-3.3994141,0-5.8710938,1.3105469-7.4160156,3.9335938
		c-1.5449219,2.6210938-2.3173828,5.7841797-2.3173828,9.4882812c0,3.5585938,0.7724609,6.5234375,2.3173828,8.8945312
		c1.5449219,2.3730469,3.9960938,3.5585938,7.3544922,3.5585938
		C544.2080078,62.8598633,546.7363281,61.449707,548.1064453,58.6313477z"/>
	<path fill="#FF7F0E" d="M564.0678711,23.7036133h5.6875v9.34375h5.34375v4.59375h-5.34375v21.84375
		c0,1.1669922,0.3955078,1.9482422,1.1875,2.34375c0.4375,0.2294922,1.1665039,0.34375,2.1875,0.34375
		c0.2705078,0,0.5625-0.0068359,0.875-0.0205078s0.6767578-0.0488281,1.09375-0.1044922v4.46875
		c-0.6459961,0.1875-1.3178711,0.3222656-2.015625,0.40625c-0.6982422,0.0830078-1.453125,0.125-2.265625,0.125
		c-2.625,0-4.40625-0.671875-5.34375-2.015625s-1.40625-3.0878906-1.40625-5.234375v-22.15625h-4.53125v-4.59375h4.53125V23.7036133
		z"/>
	<path fill="#FF7F0E" d="M598.6621094,46.2612305c1.2915039-0.1660156,2.15625-0.7070312,2.59375-1.6220703
		c0.2495117-0.5019531,0.3745117-1.2226562,0.3745117-2.1640625c0-1.9238281-0.6811523-3.3203125-2.0429688-4.1884766
		s-3.3110352-1.3017578-5.847168-1.3017578c-2.9316406,0-5.0112305,0.7958984-6.237793,2.3867188
		c-0.6860352,0.8798828-1.1328125,2.1884766-1.3408203,3.9257812h-5.25c0.1040039-4.1367188,1.440918-7.0146484,4.0107422-8.6337891
		s5.5507812-2.4287109,8.9423828-2.4287109c3.9326172,0,7.1269531,0.75,9.5825195,2.25
		c2.4345703,1.5,3.6518555,3.8339844,3.6518555,7v19.2832031c0,0.5830078,0.1196289,1.0517578,0.359375,1.4052734
		c0.2392578,0.3535156,0.7446289,0.5302734,1.515625,0.5302734c0.25,0,0.53125-0.015625,0.84375-0.046875
		s0.6455078-0.078125,1-0.140625v4.15625c-0.875,0.25-1.5419922,0.40625-2,0.46875
		c-0.4584961,0.0625-1.0834961,0.09375-1.875,0.09375c-1.9375,0-3.34375-0.6875-4.21875-2.0625
		c-0.4584961-0.7285156-0.78125-1.7597656-0.96875-3.0927734c-1.1459961,1.5-2.7919922,2.8017578-4.9375,3.9052734
		c-2.1459961,1.1035156-4.5107422,1.65625-7.09375,1.65625c-3.1044922,0-5.640625-0.9414062-7.609375-2.8242188
		s-2.953125-4.2402344-2.953125-7.0703125c0-3.0996094,0.96875-5.5029297,2.90625-7.2089844s4.4790039-2.7578125,7.625-3.1523438
		L598.6621094,46.2612305z M586.8178711,61.4575195c1.1875,0.9355469,2.59375,1.4023438,4.21875,1.4023438
		c1.9790039,0,3.8955078-0.4570312,5.75-1.3730469c3.125-1.5175781,4.6875-4.0039062,4.6875-7.4570312v-4.5234375
		c-0.6865234,0.4394531-1.5698242,0.8046875-2.6508789,1.0976562s-2.1416016,0.5009766-3.1811523,0.625l-3.3994141,0.4375
		c-2.0375977,0.2705078-3.5698242,0.6972656-4.5966797,1.2792969c-1.7397461,0.9765625-2.609375,2.5351562-2.609375,4.6757812
		C585.0366211,59.2426758,585.6303711,60.5219727,586.8178711,61.4575195z"/>
	<path fill="#FF7F0E" d="M617.4428711,23.7036133h5.6875v9.34375h5.34375v4.59375h-5.34375v21.84375
		c0,1.1669922,0.3955078,1.9482422,1.1875,2.34375c0.4375,0.2294922,1.1665039,0.34375,2.1875,0.34375
		c0.2705078,0,0.5625-0.0068359,0.875-0.0205078s0.6767578-0.0488281,1.09375-0.1044922v4.46875
		c-0.6459961,0.1875-1.3178711,0.3222656-2.015625,0.40625c-0.6982422,0.0830078-1.453125,0.125-2.265625,0.125
		c-2.625,0-4.40625-0.671875-5.34375-2.015625s-1.40625-3.0878906-1.40625-5.234375v-22.15625h-4.53125v-4.59375h4.53125V23.7036133
		z"/>
	<path fill="#FF7F0E" d="M654.7714844,33.9692383c2.2158203,1.1152344,3.9033203,2.5576172,5.0625,4.328125
		c1.1181641,1.6875,1.8632812,3.65625,2.2363281,5.90625c0.3310547,1.5419922,0.4970703,4,0.4970703,7.375h-24.3432617
		c0.1035156,3.4052734,0.8994141,6.1367188,2.3876953,8.1953125c1.487793,2.0566406,3.7924805,3.0859375,6.9135742,3.0859375
		c2.9150391,0,5.2402344-0.9726562,6.9765625-2.9199219c0.9716797-1.1289062,1.6601562-2.4375,2.0654297-3.9238281h5.53125
		c-0.1455078,1.2294922-0.6298828,2.5996094-1.453125,4.109375c-0.8232422,1.5107422-1.7412109,2.7451172-2.7539062,3.703125
		c-1.6953125,1.6669922-3.7939453,2.7910156-6.2958984,3.375c-1.34375,0.3330078-2.8632812,0.5-4.5585938,0.5
		c-4.140625,0-7.6499023-1.515625-10.527832-4.546875s-4.3164062-7.2753906-4.3164062-12.734375
		c0-5.375,1.4492188-9.7392578,4.3481445-13.09375c2.8984375-3.3535156,6.6875-5.03125,11.3671875-5.03125
		C650.2685547,32.2973633,652.5556641,32.8549805,654.7714844,33.9692383z M656.7861328,47.1098633
		c-0.2275391-2.4375-0.7539062-4.3847656-1.5800781-5.84375c-1.5292969-2.7080078-4.0800781-4.0625-7.6542969-4.0625
		c-2.5615234,0-4.7099609,0.9326172-6.4453125,2.796875c-1.7348633,1.8652344-2.6542969,4.234375-2.7573242,7.109375H656.7861328z"
		/>
	<path fill="#FF7F0E" d="M688.0810547,34.0786133c0.9960938,0.625,2.1269531,1.71875,3.3925781,3.28125v-16.90625h5.40625v46.0625
		h-5.0625v-4.65625c-1.3076172,2.0625-2.8535156,3.5527344-4.6386719,4.46875s-3.8291016,1.375-6.1328125,1.375
		c-3.7148438,0-6.9316406-1.5673828-9.6503906-4.703125c-2.71875-3.1347656-4.078125-7.3066406-4.078125-12.515625
		c0-4.875,1.2402344-9.0986328,3.7197266-12.671875c2.4804688-3.5722656,6.0234375-5.359375,10.6308594-5.359375
		C684.2207031,32.4536133,686.3583984,32.9956055,688.0810547,34.0786133z M675.5244141,59.1723633
		c1.5136719,2.4169922,3.9384766,3.625,7.2763672,3.625c2.5908203,0,4.7197266-1.1191406,6.3886719-3.359375
		c1.6689453-2.2392578,2.5029297-5.453125,2.5029297-9.640625c0-4.2285156-0.8603516-7.359375-2.5800781-9.390625
		c-1.7207031-2.03125-3.8457031-3.046875-6.3740234-3.046875c-2.8193359,0-5.1044922,1.0839844-6.8564453,3.25
		c-1.7509766,2.1669922-2.6269531,5.3544922-2.6269531,9.5625
		C673.2548828,53.7563477,674.0117188,56.7563477,675.5244141,59.1723633z"/>
</g>
<path fill="none" stroke="#FF7F0E" stroke-width="4.3997016" stroke-miterlimit="10" d="M598,164c0,0.5527344-0.4477539,1-1,1H230
	c-0.5522461,0-1-0.4472656-1-1V99c0-0.5527344,0.4477539-1,1-1h367c0.5522461,0,1,0.4472656,1,1V164z"/>
<line fill="none" stroke="#FF7F0E" stroke-width="4.4000001" stroke-linecap="round" stroke-miterlimit="10" x1="429" y1="98" x2="442" y2="81"/>
<g>
</g>
<g>
</g>
<g>
</g>
<g>
</g>
<g>
</g>
</svg>
