<?xml version="1.0" encoding="utf-8"?>
<!-- Generator: Adobe Illustrator 16.0.5, SVG Export Plug-In . SVG Version: 6.00 Build 0)  -->
<!DOCTYPE svg PUBLIC "-//W3C//DTD SVG 1.1//EN" "http://www.w3.org/Graphics/SVG/1.1/DTD/svg11.dtd">
<svg version="1.1" id="图层_1" xmlns="http://www.w3.org/2000/svg" xmlns:xlink="http://www.w3.org/1999/xlink" x="0px" y="0px"
	 width="1394.553px" height="177px" viewBox="0 0 1394.553 177" enable-background="new 0 0 1394.553 177" xml:space="preserve">
<g>
	<path d="M53.715,140.926c-0.586,5.391-2.514,9.516-5.783,12.375s-7.624,4.289-13.061,4.289c-3.797,0-7.154-0.949-10.072-2.848
		s-5.174-4.588-6.768-8.068c-1.594-3.48-2.403-7.459-2.426-11.936v-6.645c0-4.547,0.796-8.578,2.391-12.094
		c1.594-3.516,3.885-6.229,6.873-8.139s6.428-2.865,10.318-2.865c5.484,0,9.814,1.477,12.99,4.43
		c3.176,2.953,5.021,7.043,5.537,12.27h-4.359c-1.078-8.695-5.801-13.043-14.168-13.043c-4.641,0-8.338,1.736-11.092,5.207
		c-2.754,3.473-4.131,8.268-4.131,14.391v6.262c0,5.91,1.341,10.625,4.025,14.145c2.684,3.518,6.311,5.277,10.881,5.277
		c4.523,0,7.933-1.084,10.23-3.252c2.297-2.168,3.714-5.42,4.254-9.756H53.715z"/>
	<path d="M80.82,122.434c-0.891-0.164-1.84-0.246-2.848-0.246c-2.625,0-4.846,0.732-6.662,2.197
		c-1.816,1.465-3.111,3.592-3.885,6.381v26.121h-4.184v-38.039h4.113l0.07,6.047c2.227-4.5,5.801-6.75,10.723-6.75
		c1.172,0,2.097,0.152,2.777,0.457L80.82,122.434z"/>
	<path d="M101.527,157.59c-3.234,0-6.158-0.797-8.771-2.391c-2.614-1.594-4.646-3.814-6.1-6.662c-1.454-2.848-2.18-6.041-2.18-9.58
		v-1.512c0-3.656,0.708-6.949,2.127-9.879c1.418-2.93,3.393-5.232,5.924-6.908s5.273-2.514,8.227-2.514
		c4.617,0,8.279,1.576,10.986,4.729s4.061,7.459,4.061,12.92v2.355H88.66v0.809c0,4.312,1.236,7.904,3.709,10.775
		c2.473,2.871,5.584,4.307,9.334,4.307c2.25,0,4.236-0.41,5.959-1.23s3.287-2.133,4.693-3.938l2.637,2.004
		C111.898,155.352,107.41,157.59,101.527,157.59z M100.754,121.73c-3.164,0-5.831,1.16-7.998,3.48
		c-2.168,2.32-3.486,5.438-3.955,9.352h22.816v-0.457c-0.118-3.656-1.16-6.633-3.129-8.93S103.941,121.73,100.754,121.73z"/>
	<path d="M148.004,156.887c-0.422-1.195-0.691-2.965-0.809-5.309c-1.477,1.922-3.357,3.404-5.643,4.447s-4.706,1.564-7.26,1.564
		c-3.656,0-6.615-1.02-8.877-3.059c-2.262-2.039-3.393-4.617-3.393-7.734c0-3.703,1.541-6.633,4.623-8.789
		c3.082-2.156,7.377-3.234,12.885-3.234h7.629v-4.324c0-2.719-0.838-4.857-2.514-6.416c-1.676-1.559-4.119-2.338-7.33-2.338
		c-2.93,0-5.356,0.75-7.277,2.25c-1.922,1.5-2.883,3.305-2.883,5.414l-4.219-0.035c0-3.023,1.406-5.643,4.219-7.857
		s6.27-3.322,10.371-3.322c4.242,0,7.588,1.061,10.037,3.182c2.449,2.121,3.709,5.08,3.779,8.877v18c0,3.68,0.387,6.434,1.16,8.262
		v0.422H148.004z M134.785,153.863c2.812,0,5.326-0.68,7.541-2.039s3.826-3.176,4.834-5.449v-8.367h-7.523
		c-4.196,0.047-7.477,0.814-9.844,2.303c-2.368,1.488-3.551,3.533-3.551,6.135c0,2.133,0.791,3.902,2.373,5.309
		S132.254,153.863,134.785,153.863z"/>
	<path d="M169.098,109.109v9.738h7.875v3.445h-7.875v25.375c0,2.113,0.381,3.684,1.143,4.717c0.761,1.033,2.033,1.549,3.814,1.549
		c0.703,0,1.84-0.117,3.41-0.352l0.176,3.416c-1.102,0.395-2.602,0.592-4.5,0.592c-2.883,0-4.98-0.838-6.293-2.514
		c-1.313-1.676-1.969-4.143-1.969-7.4v-25.383h-6.996v-3.445h6.996v-9.738H169.098z"/>
	<path d="M200.422,157.59c-3.234,0-6.158-0.797-8.771-2.391c-2.614-1.594-4.646-3.814-6.1-6.662c-1.454-2.848-2.18-6.041-2.18-9.58
		v-1.512c0-3.656,0.708-6.949,2.127-9.879c1.418-2.93,3.393-5.232,5.924-6.908s5.273-2.514,8.227-2.514
		c4.617,0,8.279,1.576,10.986,4.729s4.061,7.459,4.061,12.92v2.355h-27.141v0.809c0,4.312,1.236,7.904,3.709,10.775
		c2.473,2.871,5.584,4.307,9.334,4.307c2.25,0,4.236-0.41,5.959-1.23s3.287-2.133,4.693-3.938l2.637,2.004
		C210.793,155.352,206.305,157.59,200.422,157.59z M199.648,121.73c-3.164,0-5.831,1.16-7.998,3.48
		c-2.168,2.32-3.486,5.438-3.955,9.352h22.816v-0.457c-0.118-3.656-1.16-6.633-3.129-8.93S202.835,121.73,199.648,121.73z"/>
	<path d="M263.316,156.887c-0.375-0.75-0.68-2.086-0.914-4.008c-3.023,3.141-6.633,4.711-10.828,4.711
		c-3.75,0-6.826-1.061-9.229-3.182c-2.403-2.121-3.604-4.811-3.604-8.068c0-3.961,1.506-7.037,4.518-9.229
		c3.011-2.191,7.248-3.287,12.709-3.287h6.328v-2.988c0-2.273-0.68-4.084-2.039-5.432c-1.359-1.348-3.363-2.021-6.012-2.021
		c-2.32,0-4.266,0.586-5.836,1.758c-1.57,1.172-2.355,2.59-2.355,4.254h-6.539c0-1.898,0.673-3.732,2.021-5.502
		c1.348-1.77,3.176-3.17,5.484-4.201c2.308-1.031,4.846-1.547,7.611-1.547c4.382,0,7.816,1.096,10.301,3.287
		c2.484,2.191,3.773,5.209,3.867,9.053v17.508c0,3.492,0.445,6.27,1.336,8.332v0.562H263.316z M252.523,151.93
		c2.039,0,3.973-0.527,5.801-1.582s3.152-2.426,3.973-4.113v-7.805h-5.098c-7.969,0-11.953,2.332-11.953,6.996
		c0,2.039,0.68,3.633,2.039,4.781C248.644,151.355,250.391,151.93,252.523,151.93z"/>
	<path d="M294.254,152.281c2.32,0,4.347-0.703,6.082-2.109c1.734-1.406,2.695-3.164,2.883-5.273h6.152
		c-0.118,2.18-0.867,4.254-2.25,6.223c-1.383,1.969-3.229,3.539-5.537,4.711c-2.309,1.172-4.752,1.758-7.33,1.758
		c-5.18,0-9.299-1.729-12.357-5.186s-4.588-8.186-4.588-14.186v-1.09c0-3.703,0.68-6.996,2.039-9.879
		c1.359-2.883,3.31-5.121,5.854-6.715c2.543-1.594,5.549-2.391,9.018-2.391c4.266,0,7.81,1.277,10.635,3.832
		c2.824,2.555,4.33,5.871,4.518,9.949h-6.152c-0.188-2.461-1.12-4.482-2.795-6.064c-1.676-1.582-3.744-2.373-6.205-2.373
		c-3.305,0-5.866,1.189-7.682,3.568c-1.816,2.379-2.725,5.818-2.725,10.318v1.23c0,4.383,0.902,7.758,2.707,10.125
		C288.324,151.098,290.902,152.281,294.254,152.281z"/>
	<path d="M331.941,152.281c2.32,0,4.347-0.703,6.082-2.109c1.734-1.406,2.695-3.164,2.883-5.273h6.152
		c-0.118,2.18-0.867,4.254-2.25,6.223c-1.383,1.969-3.229,3.539-5.537,4.711c-2.309,1.172-4.752,1.758-7.33,1.758
		c-5.18,0-9.299-1.729-12.357-5.186s-4.588-8.186-4.588-14.186v-1.09c0-3.703,0.68-6.996,2.039-9.879
		c1.359-2.883,3.31-5.121,5.854-6.715c2.543-1.594,5.549-2.391,9.018-2.391c4.266,0,7.81,1.277,10.635,3.832
		c2.824,2.555,4.33,5.871,4.518,9.949h-6.152c-0.188-2.461-1.12-4.482-2.795-6.064c-1.676-1.582-3.744-2.373-6.205-2.373
		c-3.305,0-5.866,1.189-7.682,3.568c-1.816,2.379-2.725,5.818-2.725,10.318v1.23c0,4.383,0.902,7.758,2.707,10.125
		C326.012,151.098,328.589,152.281,331.941,152.281z"/>
	<path d="M370.156,157.59c-5.156,0-9.352-1.693-12.586-5.08s-4.852-7.916-4.852-13.588v-1.195c0-3.773,0.721-7.143,2.162-10.107
		s3.457-5.285,6.047-6.961c2.589-1.676,5.396-2.514,8.42-2.514c4.945,0,8.789,1.629,11.531,4.887s4.113,7.922,4.113,13.992v2.707
		h-25.77c0.093,3.75,1.189,6.779,3.287,9.088c2.097,2.309,4.764,3.463,7.998,3.463c2.297,0,4.242-0.469,5.836-1.406
		c1.594-0.938,2.988-2.18,4.184-3.727l3.973,3.094C381.312,155.141,376.531,157.59,370.156,157.59z M369.348,123.488
		c-2.625,0-4.829,0.955-6.609,2.865c-1.781,1.91-2.883,4.588-3.305,8.033h19.055v-0.492c-0.188-3.305-1.078-5.865-2.672-7.682
		C374.222,124.396,372.066,123.488,369.348,123.488z"/>
	<path d="M398.668,118.848l0.211,4.781c2.906-3.656,6.703-5.484,11.391-5.484c8.039,0,12.094,4.535,12.164,13.605v25.137h-6.504
		v-25.172c-0.023-2.742-0.65-4.77-1.881-6.082s-3.146-1.969-5.748-1.969c-2.109,0-3.961,0.562-5.555,1.688
		c-1.594,1.125-2.836,2.602-3.727,4.43v27.105h-6.504v-38.039H398.668z"/>
	<path d="M441.066,109.637v9.211h7.102v5.027h-7.102v23.619c0,1.525,0.316,2.67,0.949,3.432c0.633,0.764,1.71,1.145,3.234,1.145
		c0.75,0,1.781-0.141,3.094-0.422v5.242c-1.711,0.467-3.375,0.699-4.992,0.699c-2.906,0-5.098-0.879-6.574-2.637
		s-2.215-4.254-2.215-7.488v-23.59h-6.926v-5.027h6.926v-9.211H441.066z"/>
	<path d="M480.793,152.07c-2.531,3.68-6.574,5.52-12.129,5.52c-4.055,0-7.137-1.178-9.246-3.533s-3.188-5.842-3.234-10.459v-24.75
		h4.184v24.223c0,7.242,2.93,10.863,8.789,10.863c6.094,0,9.949-2.52,11.566-7.559v-27.527h4.219v38.039h-4.078L480.793,152.07z"/>
	<path d="M519.887,156.887c-0.422-1.195-0.691-2.965-0.809-5.309c-1.477,1.922-3.357,3.404-5.643,4.447s-4.706,1.564-7.26,1.564
		c-3.656,0-6.615-1.02-8.877-3.059c-2.262-2.039-3.393-4.617-3.393-7.734c0-3.703,1.541-6.633,4.623-8.789
		c3.082-2.156,7.377-3.234,12.885-3.234h7.629v-4.324c0-2.719-0.838-4.857-2.514-6.416c-1.676-1.559-4.119-2.338-7.33-2.338
		c-2.93,0-5.356,0.75-7.277,2.25c-1.922,1.5-2.883,3.305-2.883,5.414l-4.219-0.035c0-3.023,1.406-5.643,4.219-7.857
		s6.27-3.322,10.371-3.322c4.242,0,7.588,1.061,10.037,3.182c2.449,2.121,3.709,5.08,3.779,8.877v18c0,3.68,0.387,6.434,1.16,8.262
		v0.422H519.887z M506.668,153.863c2.812,0,5.326-0.68,7.541-2.039s3.826-3.176,4.834-5.449v-8.367h-7.523
		c-4.196,0.047-7.477,0.814-9.844,2.303c-2.368,1.488-3.551,3.533-3.551,6.135c0,2.133,0.791,3.902,2.373,5.309
		S504.137,153.863,506.668,153.863z"/>
	<path d="M540.98,109.109v9.738h7.875v3.445h-7.875v25.375c0,2.113,0.381,3.684,1.143,4.717s2.033,1.549,3.814,1.549
		c0.703,0,1.84-0.117,3.41-0.352l0.176,3.416c-1.102,0.395-2.602,0.592-4.5,0.592c-2.883,0-4.98-0.838-6.293-2.514
		s-1.969-4.143-1.969-7.4v-25.383h-6.996v-3.445h6.996v-9.738H540.98z"/>
	<path d="M572.305,157.59c-3.234,0-6.158-0.797-8.771-2.391s-4.646-3.814-6.1-6.662s-2.18-6.041-2.18-9.58v-1.512
		c0-3.656,0.709-6.949,2.127-9.879s3.393-5.232,5.924-6.908s5.273-2.514,8.227-2.514c4.617,0,8.279,1.576,10.986,4.729
		s4.061,7.459,4.061,12.92v2.355h-27.141v0.809c0,4.312,1.236,7.904,3.709,10.775s5.584,4.307,9.334,4.307
		c2.25,0,4.236-0.41,5.959-1.23s3.287-2.133,4.693-3.938l2.637,2.004C582.676,155.352,578.188,157.59,572.305,157.59z
		 M571.531,121.73c-3.164,0-5.83,1.16-7.998,3.48s-3.486,5.438-3.955,9.352h22.816v-0.457c-0.117-3.656-1.16-6.633-3.129-8.93
		S574.719,121.73,571.531,121.73z"/>
	<path d="M593.082,137.516c0-5.906,1.318-10.611,3.955-14.115s6.217-5.256,10.74-5.256c5.133,0,9.047,2.027,11.742,6.082v-21.34
		h4.184v54h-3.938l-0.176-5.062c-2.695,3.844-6.656,5.766-11.883,5.766c-4.383,0-7.916-1.764-10.6-5.291s-4.025-8.291-4.025-14.291
		V137.516z M597.336,138.254c0,4.852,0.973,8.678,2.918,11.479s4.688,4.201,8.227,4.201c5.18,0,8.859-2.285,11.039-6.855v-17.859
		c-2.18-4.945-5.836-7.418-10.969-7.418c-3.539,0-6.293,1.389-8.262,4.166S597.336,132.84,597.336,138.254z"/>
	<path d="M666.348,154.039c2.93,0,5.385-0.826,7.365-2.479s3.053-3.791,3.217-6.416h4.043c-0.117,2.32-0.844,4.436-2.18,6.346
		s-3.111,3.404-5.326,4.482s-4.588,1.617-7.119,1.617c-4.992,0-8.947-1.734-11.865-5.203s-4.377-8.133-4.377-13.992v-1.266
		c0-3.75,0.656-7.066,1.969-9.949s3.193-5.109,5.643-6.68s5.314-2.355,8.596-2.355c4.172,0,7.611,1.242,10.318,3.727
		s4.154,5.754,4.342,9.809h-4.043c-0.188-2.977-1.26-5.379-3.217-7.207s-4.424-2.742-7.4-2.742c-3.797,0-6.744,1.371-8.842,4.113
		s-3.146,6.586-3.146,11.531v1.23c0,4.852,1.049,8.637,3.146,11.355S662.527,154.039,666.348,154.039z"/>
	<path d="M693.559,125.281c1.383-2.273,3.152-4.031,5.309-5.273s4.512-1.863,7.066-1.863c4.078,0,7.113,1.148,9.105,3.445
		s3,5.742,3.023,10.336v24.961h-4.184v-24.996c-0.023-3.398-0.744-5.93-2.162-7.594s-3.686-2.496-6.803-2.496
		c-2.602,0-4.904,0.814-6.908,2.443s-3.486,3.826-4.447,6.592v26.051h-4.184v-54h4.184V125.281z"/>
	<path d="M752.902,156.887c-0.422-1.195-0.691-2.965-0.809-5.309c-1.477,1.922-3.357,3.404-5.643,4.447s-4.705,1.564-7.26,1.564
		c-3.656,0-6.615-1.02-8.877-3.059s-3.393-4.617-3.393-7.734c0-3.703,1.541-6.633,4.623-8.789s7.377-3.234,12.885-3.234h7.629
		v-4.324c0-2.719-0.838-4.857-2.514-6.416s-4.119-2.338-7.33-2.338c-2.93,0-5.355,0.75-7.277,2.25s-2.883,3.305-2.883,5.414
		l-4.219-0.035c0-3.023,1.406-5.643,4.219-7.857s6.27-3.322,10.371-3.322c4.242,0,7.588,1.061,10.037,3.182s3.709,5.08,3.779,8.877
		v18c0,3.68,0.387,6.434,1.16,8.262v0.422H752.902z M739.684,153.863c2.812,0,5.326-0.68,7.541-2.039s3.826-3.176,4.834-5.449
		v-8.367h-7.523c-4.195,0.047-7.477,0.814-9.844,2.303s-3.551,3.533-3.551,6.135c0,2.133,0.791,3.902,2.373,5.309
		S737.152,153.863,739.684,153.863z"/>
	<path d="M785.035,122.434c-0.891-0.164-1.84-0.246-2.848-0.246c-2.625,0-4.846,0.732-6.662,2.197s-3.111,3.592-3.885,6.381v26.121
		h-4.184v-38.039h4.113l0.07,6.047c2.227-4.5,5.801-6.75,10.723-6.75c1.172,0,2.098,0.152,2.777,0.457L785.035,122.434z"/>
	<path d="M799.977,109.109v9.738h7.875v3.445h-7.875v25.375c0,2.113,0.381,3.684,1.143,4.717s2.033,1.549,3.814,1.549
		c0.703,0,1.84-0.117,3.41-0.352l0.176,3.416c-1.102,0.395-2.602,0.592-4.5,0.592c-2.883,0-4.98-0.838-6.293-2.514
		s-1.969-4.143-1.969-7.4v-25.383h-6.996v-3.445h6.996v-9.738H799.977z"/>
	<path d="M839.352,147.219c0-2.086-0.838-3.762-2.514-5.027s-4.201-2.256-7.576-2.971s-5.994-1.535-7.857-2.461
		s-3.246-2.057-4.148-3.393s-1.354-2.953-1.354-4.852c0-3,1.254-5.479,3.762-7.436s5.719-2.936,9.633-2.936
		c4.242,0,7.646,1.049,10.213,3.146s3.85,4.834,3.85,8.209h-4.219c0-2.227-0.932-4.078-2.795-5.555s-4.213-2.215-7.049-2.215
		c-2.766,0-4.986,0.615-6.662,1.846s-2.514,2.83-2.514,4.799c0,1.898,0.697,3.369,2.092,4.412s3.938,1.998,7.629,2.865
		s6.457,1.793,8.297,2.777s3.205,2.168,4.096,3.551s1.336,3.059,1.336,5.027c0,3.211-1.295,5.777-3.885,7.699
		s-5.971,2.883-10.143,2.883c-4.43,0-8.021-1.072-10.775-3.217s-4.131-4.857-4.131-8.139h4.219c0.164,2.461,1.201,4.377,3.111,5.748
		s4.436,2.057,7.576,2.057c2.93,0,5.297-0.645,7.102-1.934S839.352,149.188,839.352,147.219z"/>
	<path d="M879.641,148.133l0.633,3.27l0.844-3.445l9.141-29.109h3.586l9.035,28.863l0.984,4.008l0.809-3.691l7.805-29.18h4.359
		l-11.074,38.039h-3.586l-9.773-30.164l-0.457-2.074l-0.457,2.109l-9.598,30.129h-3.586l-11.039-38.039h4.324L879.641,148.133z"/>
	<path d="M924.57,107.861c0-0.793,0.258-1.463,0.773-2.01s1.219-0.82,2.109-0.82s1.6,0.273,2.127,0.82s0.791,1.217,0.791,2.01
		c0,0.791-0.264,1.455-0.791,1.99c-0.527,0.537-1.236,0.805-2.127,0.805s-1.594-0.268-2.109-0.805
		C924.828,109.316,924.57,108.652,924.57,107.861z M929.527,156.887h-4.219v-38.039h4.219V156.887z"/>
	<path d="M947.492,109.109v9.738h7.875v3.445h-7.875v25.375c0,2.113,0.381,3.684,1.143,4.717s2.033,1.549,3.814,1.549
		c0.703,0,1.84-0.117,3.41-0.352l0.176,3.416c-1.102,0.395-2.602,0.592-4.5,0.592c-2.883,0-4.98-0.838-6.293-2.514
		s-1.969-4.143-1.969-7.4v-25.383h-6.996v-3.445h6.996v-9.738H947.492z"/>
	<path d="M968.27,125.281c1.383-2.273,3.152-4.031,5.309-5.273s4.512-1.863,7.066-1.863c4.078,0,7.113,1.148,9.105,3.445
		s3,5.742,3.023,10.336v24.961h-4.184v-24.996c-0.023-3.398-0.744-5.93-2.162-7.594s-3.686-2.496-6.803-2.496
		c-2.602,0-4.904,0.814-6.908,2.443s-3.486,3.826-4.447,6.592v26.051h-4.184v-54h4.184V125.281z"/>
	<path d="M1045.121,156.887c-0.422-1.195-0.691-2.965-0.809-5.309c-1.477,1.922-3.357,3.404-5.643,4.447s-4.705,1.564-7.26,1.564
		c-3.656,0-6.615-1.02-8.877-3.059s-3.393-4.617-3.393-7.734c0-3.703,1.541-6.633,4.623-8.789s7.377-3.234,12.885-3.234h7.629
		v-4.324c0-2.719-0.838-4.857-2.514-6.416s-4.119-2.338-7.33-2.338c-2.93,0-5.355,0.75-7.277,2.25s-2.883,3.305-2.883,5.414
		l-4.219-0.035c0-3.023,1.406-5.643,4.219-7.857s6.27-3.322,10.371-3.322c4.242,0,7.588,1.061,10.037,3.182s3.709,5.08,3.779,8.877
		v18c0,3.68,0.387,6.434,1.16,8.262v0.422H1045.121z M1031.902,153.863c2.812,0,5.326-0.68,7.541-2.039s3.826-3.176,4.834-5.449
		v-8.367h-7.523c-4.195,0.047-7.477,0.814-9.844,2.303s-3.551,3.533-3.551,6.135c0,2.133,0.791,3.902,2.373,5.309
		S1029.371,153.863,1031.902,153.863z"/>
	<path d="M1080.207,156.887v-34.594h-6.293v-3.445h6.293v-4.605c0-3.891,0.99-6.879,2.971-8.965s4.74-3.129,8.279-3.129
		c1.594,0,3.082,0.197,4.465,0.592l-0.316,3.486c-1.172-0.281-2.449-0.422-3.832-0.422c-2.32,0-4.125,0.723-5.414,2.168
		s-1.934,3.496-1.934,6.15v4.725h9.07v3.445h-9.07v34.594H1080.207z"/>
	<path d="M1114.906,157.59c-3.234,0-6.158-0.797-8.771-2.391s-4.646-3.814-6.1-6.662s-2.18-6.041-2.18-9.58v-1.512
		c0-3.656,0.709-6.949,2.127-9.879s3.393-5.232,5.924-6.908s5.273-2.514,8.227-2.514c4.617,0,8.279,1.576,10.986,4.729
		s4.061,7.459,4.061,12.92v2.355h-27.141v0.809c0,4.312,1.236,7.904,3.709,10.775s5.584,4.307,9.334,4.307
		c2.25,0,4.236-0.41,5.959-1.23s3.287-2.133,4.693-3.938l2.637,2.004C1125.277,155.352,1120.789,157.59,1114.906,157.59z
		 M1114.133,121.73c-3.164,0-5.83,1.16-7.998,3.48s-3.486,5.438-3.955,9.352h22.816v-0.457c-0.117-3.656-1.16-6.633-3.129-8.93
		S1117.32,121.73,1114.133,121.73z"/>
	<path d="M1146.477,148.133l0.633,3.27l0.844-3.445l9.141-29.109h3.586l9.035,28.863l0.984,4.008l0.809-3.691l7.805-29.18h4.359
		l-11.074,38.039h-3.586l-9.773-30.164l-0.457-2.074l-0.457,2.109l-9.598,30.129h-3.586l-11.039-38.039h4.324L1146.477,148.133z"/>
	<path d="M1223.223,154.039c2.93,0,5.385-0.826,7.365-2.479s3.053-3.791,3.217-6.416h4.043c-0.117,2.32-0.844,4.436-2.18,6.346
		s-3.111,3.404-5.326,4.482s-4.588,1.617-7.119,1.617c-4.992,0-8.947-1.734-11.865-5.203s-4.377-8.133-4.377-13.992v-1.266
		c0-3.75,0.656-7.066,1.969-9.949s3.193-5.109,5.643-6.68s5.314-2.355,8.596-2.355c4.172,0,7.611,1.242,10.318,3.727
		s4.154,5.754,4.342,9.809h-4.043c-0.188-2.977-1.26-5.379-3.217-7.207s-4.424-2.742-7.4-2.742c-3.797,0-6.744,1.371-8.842,4.113
		s-3.146,6.586-3.146,11.531v1.23c0,4.852,1.049,8.637,3.146,11.355S1219.402,154.039,1223.223,154.039z"/>
	<path d="M1250.961,156.887h-4.219v-54h4.219V156.887z"/>
	<path d="M1262.141,107.861c0-0.793,0.258-1.463,0.773-2.01s1.219-0.82,2.109-0.82s1.6,0.273,2.127,0.82s0.791,1.217,0.791,2.01
		c0,0.791-0.264,1.455-0.791,1.99c-0.527,0.537-1.236,0.805-2.127,0.805s-1.594-0.268-2.109-0.805
		C1262.398,109.316,1262.141,108.652,1262.141,107.861z M1267.098,156.887h-4.219v-38.039h4.219V156.887z"/>
	<path d="M1292.586,154.039c2.93,0,5.385-0.826,7.365-2.479s3.053-3.791,3.217-6.416h4.043c-0.117,2.32-0.844,4.436-2.18,6.346
		s-3.111,3.404-5.326,4.482s-4.588,1.617-7.119,1.617c-4.992,0-8.947-1.734-11.865-5.203s-4.377-8.133-4.377-13.992v-1.266
		c0-3.75,0.656-7.066,1.969-9.949s3.193-5.109,5.643-6.68s5.314-2.355,8.596-2.355c4.172,0,7.611,1.242,10.318,3.727
		s4.154,5.754,4.342,9.809h-4.043c-0.188-2.977-1.26-5.379-3.217-7.207s-4.424-2.742-7.4-2.742c-3.797,0-6.744,1.371-8.842,4.113
		s-3.146,6.586-3.146,11.531v1.23c0,4.852,1.049,8.637,3.146,11.355S1288.766,154.039,1292.586,154.039z"/>
	<path d="M1324.648,137.727l-4.816,4.641v14.52h-4.219v-54h4.219v34.559l3.973-4.289l14.555-14.309h5.309l-16.137,16.031
		l17.543,22.008h-5.027L1324.648,137.727z"/>
	<path d="M1373.656,147.219c0-2.086-0.838-3.762-2.514-5.027s-4.201-2.256-7.576-2.971s-5.994-1.535-7.857-2.461
		s-3.246-2.057-4.148-3.393s-1.354-2.953-1.354-4.852c0-3,1.254-5.479,3.762-7.436s5.719-2.936,9.633-2.936
		c4.242,0,7.646,1.049,10.213,3.146s3.85,4.834,3.85,8.209h-4.219c0-2.227-0.932-4.078-2.795-5.555s-4.213-2.215-7.049-2.215
		c-2.766,0-4.986,0.615-6.662,1.846s-2.514,2.83-2.514,4.799c0,1.898,0.697,3.369,2.092,4.412s3.938,1.998,7.629,2.865
		s6.457,1.793,8.297,2.777s3.205,2.168,4.096,3.551s1.336,3.059,1.336,5.027c0,3.211-1.295,5.777-3.885,7.699
		s-5.971,2.883-10.143,2.883c-4.43,0-8.021-1.072-10.775-3.217s-4.131-4.857-4.131-8.139h4.219c0.164,2.461,1.201,4.377,3.111,5.748
		s4.436,2.057,7.576,2.057c2.93,0,5.297-0.645,7.102-1.934S1373.656,149.188,1373.656,147.219z"/>
</g>
<path fill="none" stroke="#FF7F0E" stroke-width="4.4" stroke-miterlimit="10" d="M638.591,164c0,0.553-0.497,1-1.11,1H230.11
	c-0.613,0-1.11-0.447-1.11-1V99c0-0.553,0.497-1,1.11-1h407.371c0.613,0,1.11,0.447,1.11,1V164z"/>
<line fill="none" stroke="#FF7F0E" stroke-width="4.4" stroke-linecap="round" stroke-miterlimit="10" x1="429" y1="98" x2="442" y2="81"/>
<g>
	<path fill="#FF7F0E" d="M427.292,65.792c-0.375-0.75-0.68-2.086-0.914-4.008c-3.023,3.141-6.633,4.711-10.828,4.711
		c-3.75,0-6.826-1.061-9.229-3.182c-2.403-2.121-3.604-4.811-3.604-8.068c0-3.961,1.506-7.037,4.518-9.229
		c3.011-2.191,7.248-3.287,12.709-3.287h6.328v-2.988c0-2.273-0.68-4.084-2.039-5.432c-1.359-1.348-3.363-2.021-6.012-2.021
		c-2.32,0-4.266,0.586-5.836,1.758c-1.57,1.172-2.355,2.59-2.355,4.254h-6.539c0-1.898,0.673-3.732,2.021-5.502
		c1.348-1.77,3.176-3.17,5.484-4.201c2.308-1.031,4.846-1.547,7.611-1.547c4.382,0,7.816,1.096,10.301,3.287
		c2.484,2.191,3.773,5.209,3.867,9.053v17.508c0,3.492,0.445,6.27,1.336,8.332v0.562H427.292z M416.499,60.834
		c2.039,0,3.973-0.527,5.801-1.582s3.152-2.426,3.973-4.113v-7.805h-5.098c-7.969,0-11.953,2.332-11.953,6.996
		c0,2.039,0.68,3.633,2.039,4.781C412.62,60.26,414.366,60.834,416.499,60.834z"/>
	<path fill="#FF7F0E" d="M449.124,27.752l0.211,4.781c2.906-3.656,6.703-5.484,11.391-5.484c8.039,0,12.094,4.535,12.164,13.605
		v25.137h-6.504V40.62c-0.023-2.742-0.65-4.77-1.881-6.082s-3.146-1.969-5.748-1.969c-2.109,0-3.961,0.562-5.555,1.688
		c-1.594,1.125-2.836,2.602-3.727,4.43v27.105h-6.504V27.752H449.124z"/>
	<path fill="#FF7F0E" d="M488.851,27.752l0.211,4.781c2.906-3.656,6.703-5.484,11.391-5.484c8.039,0,12.094,4.535,12.164,13.605
		v25.137h-6.504V40.62c-0.023-2.742-0.65-4.77-1.881-6.082s-3.146-1.969-5.748-1.969c-2.109,0-3.961,0.562-5.555,1.688
		c-1.594,1.125-2.836,2.602-3.727,4.43v27.105h-6.504V27.752H488.851z"/>
	<path fill="#FF7F0E" d="M520.702,46.42c0-3.727,0.732-7.078,2.197-10.055c1.464-2.977,3.503-5.273,6.117-6.891
		c2.613-1.617,5.595-2.426,8.947-2.426c5.18,0,9.369,1.793,12.568,5.379s4.799,8.355,4.799,14.309v0.457
		c0,3.703-0.709,7.025-2.127,9.967c-1.418,2.941-3.445,5.232-6.082,6.873s-5.666,2.461-9.088,2.461
		c-5.156,0-9.334-1.793-12.533-5.379s-4.799-8.332-4.799-14.238V46.42z M527.241,47.194c0,4.219,0.979,7.605,2.936,10.16
		c1.957,2.555,4.576,3.832,7.857,3.832c3.305,0,5.929-1.295,7.875-3.885c1.945-2.59,2.918-6.217,2.918-10.881
		c0-4.172-0.99-7.553-2.971-10.143c-1.981-2.59-4.611-3.885-7.893-3.885c-3.211,0-5.801,1.277-7.77,3.832
		S527.241,42.436,527.241,47.194z"/>
	<path fill="#FF7F0E" d="M572.312,18.542v9.211h7.102v5.027h-7.102v23.619c0,1.525,0.316,2.67,0.949,3.433s1.71,1.144,3.234,1.144
		c0.75,0,1.781-0.141,3.094-0.422v5.242c-1.711,0.467-3.375,0.699-4.992,0.699c-2.906,0-5.098-0.879-6.574-2.637
		s-2.215-4.254-2.215-7.488V32.78h-6.926v-5.027h6.926v-9.211H572.312z"/>
	<path fill="#FF7F0E" d="M610.491,65.792c-0.375-0.75-0.68-2.086-0.914-4.008c-3.023,3.141-6.633,4.711-10.828,4.711
		c-3.75,0-6.826-1.061-9.229-3.182c-2.403-2.121-3.604-4.811-3.604-8.068c0-3.961,1.506-7.037,4.518-9.229
		c3.011-2.191,7.248-3.287,12.709-3.287h6.328v-2.988c0-2.273-0.68-4.084-2.039-5.432c-1.359-1.348-3.363-2.021-6.012-2.021
		c-2.32,0-4.266,0.586-5.836,1.758c-1.57,1.172-2.355,2.59-2.355,4.254h-6.539c0-1.898,0.673-3.732,2.021-5.502
		c1.348-1.77,3.176-3.17,5.484-4.201c2.308-1.031,4.846-1.547,7.611-1.547c4.382,0,7.816,1.096,10.301,3.287
		c2.484,2.191,3.773,5.209,3.867,9.053v17.508c0,3.492,0.445,6.27,1.336,8.332v0.562H610.491z M599.698,60.834
		c2.039,0,3.973-0.527,5.801-1.582s3.152-2.426,3.973-4.113v-7.805h-5.098c-7.969,0-11.953,2.332-11.953,6.996
		c0,2.039,0.68,3.633,2.039,4.781C595.819,60.26,597.565,60.834,599.698,60.834z"/>
	<path fill="#FF7F0E" d="M634.995,18.542v9.211h7.102v5.027h-7.102v23.619c0,1.525,0.316,2.67,0.949,3.433s1.71,1.144,3.234,1.144
		c0.75,0,1.781-0.141,3.094-0.422v5.242c-1.711,0.467-3.375,0.699-4.992,0.699c-2.906,0-5.098-0.879-6.574-2.637
		s-2.215-4.254-2.215-7.488V32.78h-6.926v-5.027h6.926v-9.211H634.995z"/>
	<path fill="#FF7F0E" d="M665.476,66.495c-5.156,0-9.352-1.693-12.586-5.08s-4.852-7.916-4.852-13.588v-1.195
		c0-3.773,0.721-7.143,2.162-10.107s3.457-5.285,6.047-6.961c2.589-1.676,5.396-2.514,8.42-2.514c4.944,0,8.789,1.629,11.531,4.887
		s4.113,7.922,4.113,13.992v2.707h-25.77c0.093,3.75,1.189,6.779,3.287,9.088c2.097,2.309,4.764,3.463,7.998,3.463
		c2.297,0,4.241-0.469,5.836-1.406c1.594-0.938,2.988-2.18,4.184-3.727l3.973,3.094C676.632,64.045,671.851,66.495,665.476,66.495z
		 M664.667,32.393c-2.625,0-4.829,0.955-6.609,2.865c-1.781,1.91-2.883,4.588-3.305,8.033h19.055v-0.492
		c-0.188-3.305-1.078-5.865-2.672-7.682C669.541,33.301,667.386,32.393,664.667,32.393z"/>
	<path fill="#FF7F0E" d="M686.253,46.456c0-5.836,1.383-10.529,4.148-14.08c2.765-3.551,6.386-5.326,10.863-5.326
		c4.452,0,7.98,1.523,10.582,4.57V11.792h6.504v54h-5.977l-0.316-4.078c-2.602,3.188-6.223,4.781-10.863,4.781
		c-4.407,0-7.998-1.805-10.775-5.414s-4.166-8.32-4.166-14.133V46.456z M692.757,47.194c0,4.312,0.891,7.688,2.672,10.125
		c1.78,2.438,4.241,3.656,7.383,3.656c4.125,0,7.137-1.852,9.035-5.555V37.948c-1.946-3.586-4.935-5.379-8.965-5.379
		c-3.188,0-5.673,1.23-7.453,3.691C693.647,38.721,692.757,42.366,692.757,47.194z"/>
</g>
</svg>
