<svg xmlns="http://www.w3.org/2000/svg" viewBox="0 0 24 24"><title>chartaccent-icons</title><line x1="3" y1="17.4004" x2="21" y2="6.5996" style="fill:none;stroke:#231815;stroke-linecap:round;stroke-linejoin:round;stroke-width:2px"/><path d="M5.3125,12a1.71875,1.71875,0,1,1-1.7187-1.7187A1.7188,1.7188,0,0,1,5.3125,12Z"/><path d="M11.7188,17.4004A1.71875,1.71875,0,1,1,10,15.6816,1.7188,1.7188,0,0,1,11.7188,17.4004Z"/><path d="M15.4375,6.5996a1.71875,1.71875,0,1,1-1.7187-1.7187A1.7188,1.7188,0,0,1,15.4375,6.5996Z"/><path d="M22.125,10.5938A1.71875,1.71875,0,1,1,20.4063,8.875,1.71872,1.71872,0,0,1,22.125,10.5938Z"/></svg>