<?xml version="1.0" encoding="utf-8"?>
<!-- Generator: Adobe Illustrator 16.0.5, SVG Export Plug-In . SVG Version: 6.00 Build 0)  -->
<!DOCTYPE svg PUBLIC "-//W3C//DTD SVG 1.1//EN" "http://www.w3.org/Graphics/SVG/1.1/DTD/svg11.dtd">
<svg version="1.1" id="Layer_1" xmlns="http://www.w3.org/2000/svg" xmlns:xlink="http://www.w3.org/1999/xlink" x="0px" y="0px"
	 width="24px" height="24.0004883px" viewBox="0 0 24 24.0004883" enable-background="new 0 0 24 24.0004883" xml:space="preserve">
<path d="M19.5249023,3.1254883H4.4873047L4.3320312,8.0410156h0.6484375
	c0.269043-1.4155273,0.6694336-2.3330078,1.2016602-2.7543945C6.7148438,4.8666992,7.7167969,4.65625,9.1884766,4.65625h1.4931641
	v13.1782227c0,1.1357422-0.1386719,1.8447266-0.4150391,2.1259766c-0.277832,0.28125-0.9790039,0.4667969-2.1044922,0.5507812
	v0.4892578h7.7524414v-0.4892578c-1.081543-0.0771484-1.7827148-0.2353516-2.1035156-0.4814453
	c-0.3203125-0.2421875-0.4804688-0.8710938-0.4804688-1.8857422V4.65625h1.4799805
	c1.5410156,0,2.5522461,0.2138672,3.0327148,0.6376953c0.4799805,0.4248047,0.8769531,1.3408203,1.1884766,2.7470703h0.6362305
	L19.5249023,3.1254883z"/>
</svg>
