<?xml version="1.0" encoding="utf-8"?>
<!-- Generator: Adobe Illustrator 16.0.5, SVG Export Plug-In . SVG Version: 6.00 Build 0)  -->
<!DOCTYPE svg PUBLIC "-//W3C//DTD SVG 1.1//EN" "http://www.w3.org/Graphics/SVG/1.1/DTD/svg11.dtd">
<svg version="1.1" id="Layer_1" xmlns="http://www.w3.org/2000/svg" xmlns:xlink="http://www.w3.org/1999/xlink" x="0px" y="0px"
	 width="24px" height="24px" viewBox="0 0 24 24" enable-background="new 0 0 24 24" xml:space="preserve">
<path d="M12,0C5.373,0,0,5.373,0,12c0,6.627,5.373,12,12,12c6.627,0,12-5.373,12-12C24,5.373,18.627,0,12,0z M12.859,18.396h-2.693
	V8L6.951,8.993V6.821l5.62-2.013h0.289V18.396z M16.823,18.101c-0.286,0.265-0.652,0.397-1.1,0.397
	c-0.441,0-0.806-0.133-1.091-0.397c-0.285-0.264-0.429-0.605-0.429-1.028c0-0.429,0.146-0.776,0.435-1.044
	c0.289-0.267,0.649-0.4,1.085-0.4c0.44,0,0.808,0.134,1.097,0.4c0.289,0.268,0.431,0.615,0.431,1.044
	C17.251,17.495,17.109,17.837,16.823,18.101z"/>
</svg>
