<?xml version="1.0" encoding="utf-8"?>
<!-- Generator: Adobe Illustrator 16.0.5, SVG Export Plug-In . SVG Version: 6.00 Build 0)  -->
<!DOCTYPE svg PUBLIC "-//W3C//DTD SVG 1.1//EN" "http://www.w3.org/Graphics/SVG/1.1/DTD/svg11.dtd">
<svg version="1.1" id="Layer_1" xmlns="http://www.w3.org/2000/svg" xmlns:xlink="http://www.w3.org/1999/xlink" x="0px" y="0px"
	 width="24px" height="24px" viewBox="0 0 24 24" enable-background="new 0 0 24 24" xml:space="preserve">
<g>
	<polygon points="18.9023438,2 18.9023438,4.0644531 19.9355469,4.0644531 19.9355469,5.0966797 22,5.0966797 22,2 	"/>
	<rect x="12.8261719" y="2" width="4.4199219" height="2.0644531"/>
	<rect x="6.7519531" y="2" width="4.4179688" height="2.0644531"/>
	<polygon points="2,5.0966797 4.0644531,5.0966797 4.0644531,4.0644531 5.0957031,4.0644531 5.0957031,2 2,2 	"/>
	<rect x="2" y="6.753418" width="2.0644531" height="4.4179688"/>
	<rect x="2" y="12.828125" width="2.0644531" height="4.4179688"/>
	<polygon points="4.0644531,18.9033203 2,18.9033203 2,22 5.0957031,22 5.0957031,19.9355469 4.0644531,19.9355469 	"/>
	<rect x="12.828125" y="19.9355469" width="4.4179688" height="2.0644531"/>
	<rect x="6.7539062" y="19.9355469" width="4.4179688" height="2.0644531"/>
	<polygon points="19.9355469,19.9355469 18.9023438,19.9355469 18.9023438,22 22,22 22,18.9033203 19.9355469,18.9033203 	"/>
	<rect x="19.9355469" y="6.7529297" width="2.0644531" height="4.418457"/>
	<rect x="19.9355469" y="12.828125" width="2.0644531" height="4.4179688"/>
</g>
</svg>
