<?xml version="1.0" encoding="utf-8"?>
<!-- Generator: Adobe Illustrator 16.0.5, SVG Export Plug-In . SVG Version: 6.00 Build 0)  -->
<!DOCTYPE svg PUBLIC "-//W3C//DTD SVG 1.1//EN" "http://www.w3.org/Graphics/SVG/1.1/DTD/svg11.dtd">
<svg version="1.1" id="Layer_1" xmlns="http://www.w3.org/2000/svg" xmlns:xlink="http://www.w3.org/1999/xlink" x="0px" y="0px"
	 width="24px" height="24px" viewBox="0 0 24 24" enable-background="new 0 0 24 24" xml:space="preserve">
<g transform="translate(0,-952.36218)">
	<path d="M1.205,956.535c-0.583,0-1.079,0.494-1.079,1.08v13.495c0,0.586,0.497,1.081,1.079,1.081h21.592
		c0.583,0,1.076-0.495,1.076-1.081v-13.495c0-0.585-0.493-1.08-1.076-1.08H1.205z M1.745,960.077l5.473,4.276l-5.473,5.128V960.077z
		 M22.257,960.077v9.404l-5.472-5.128L22.257,960.077z M8.508,965.355l2.995,2.338c0.294,0.226,0.702,0.226,0.996,0l2.994-2.338
		l5.559,5.214h-18.1L8.508,965.355z"/>
</g>
</svg>
