<?xml version="1.0" encoding="utf-8"?>
<!-- Generator: Adobe Illustrator 16.0.5, SVG Export Plug-In . SVG Version: 6.00 Build 0)  -->
<!DOCTYPE svg PUBLIC "-//W3C//DTD SVG 1.1//EN" "http://www.w3.org/Graphics/SVG/1.1/DTD/svg11.dtd">
<svg version="1.1" id="Layer_1" xmlns="http://www.w3.org/2000/svg" xmlns:xlink="http://www.w3.org/1999/xlink" x="0px" y="0px"
	 width="24px" height="24px" viewBox="0 0 24 24" enable-background="new 0 0 24 24" xml:space="preserve">
<path d="M20.485,3.515C18.313,1.343,15.313,0,12,0S5.687,1.343,3.515,3.515C1.343,5.687,0,8.687,0,12s1.343,6.313,3.515,8.485
	C5.687,22.656,8.687,24,12,24s6.313-1.344,8.485-3.515C22.656,18.313,24,15.313,24,12S22.656,5.687,20.485,3.515z M12.941,20.116
	c-0.276,0.282-0.667,0.425-1.171,0.425c-0.505,0-0.89-0.143-1.163-0.425c-0.273-0.283-0.409-0.636-0.409-1.048
	c0-0.453,0.141-0.82,0.424-1.096c0.282-0.274,0.666-0.416,1.148-0.416c0.49,0,0.876,0.143,1.157,0.428
	c0.287,0.285,0.431,0.644,0.431,1.084C13.357,19.48,13.216,19.833,12.941,20.116z M15.193,11.592l-1.412,1.39
	c-0.507,0.574-0.765,1.411-0.783,2.514h-2.607c0,0.001,0,0.002,0,0.002v-0.002l0,0c0-1.015,0.127-1.829,0.379-2.432
	c0.252-0.605,0.753-1.27,1.5-1.991c0.746-0.725,1.218-1.24,1.417-1.546c0.304-0.465,0.458-0.97,0.458-1.512
	c0-0.717-0.176-1.269-0.532-1.644c-0.353-0.378-0.88-0.569-1.568-0.569c-0.659,0-1.186,0.185-1.588,0.555
	c-0.402,0.369-0.604,0.872-0.604,1.503H7.065c0.016-1.356,0.477-2.429,1.383-3.219c0.907-0.789,2.104-1.182,3.598-1.182
	c1.539,0,2.739,0.39,3.599,1.17c0.861,0.781,1.293,1.873,1.293,3.275C16.938,9.153,16.354,10.382,15.193,11.592z"/>
</svg>
