<?xml version="1.0" encoding="utf-8"?>
<!-- Generator: Adobe Illustrator 16.0.5, SVG Export Plug-In . SVG Version: 6.00 Build 0)  -->
<!DOCTYPE svg PUBLIC "-//W3C//DTD SVG 1.1//EN" "http://www.w3.org/Graphics/SVG/1.1/DTD/svg11.dtd">
<svg version="1.1" id="Layer_1" xmlns="http://www.w3.org/2000/svg" xmlns:xlink="http://www.w3.org/1999/xlink" x="0px" y="0px"
	 width="24px" height="24px" viewBox="0 0 24 24" enable-background="new 0 0 24 24" xml:space="preserve">
<path fill="#231815" d="M21.5,10H4.3681641V8H6L3.7675781,3L1.5371094,8h1.6308594v13h1.2001953l0,0H21.5V10z M20.5,17.2929688
	L17.7929688,20h-1.5859375L20.5,15.7070312V17.2929688z M20.5,14.2929688L14.7929688,20h-1.5859375L20.5,12.7070312V14.2929688z
	 M20.5,11.2929688L11.7929688,20h-1.5859375l9-9H20.5V11.2929688z M8.7929688,20H7.2070312l9-9h1.5859375L8.7929688,20z
	 M4.5,13.7070312L7.2070312,11h1.5859375L4.5,15.2929688V13.7070312z M4.5,16.7070312L10.2070312,11h1.5859375L4.5,18.2929688
	V16.7070312z M5.7929688,11L4.5,12.2929688V11H5.7929688z M4.5,19.7070312L13.2070312,11h1.5859375l-9,9H4.5V19.7070312z
	 M19.2070312,20L20.5,18.7070312V20H19.2070312z"/>
</svg>
