<svg xmlns="http://www.w3.org/2000/svg" viewBox="0 0 24 24"><title>chartaccent-icons</title><path d="M12,18.5762c-2.6484,0-5.2363-1.418-7.1885-2.8672a23.658,23.658,0,0,1-3.375-3.0488l-.29-.3301L.8555,12l.291-.3301.29-.3301A23.66473,23.66473,0,0,1,4.8115,8.291C6.7637,6.8418,9.3516,5.4238,12,5.4238s5.2363,1.418,7.1885,2.8672a23.66473,23.66473,0,0,1,3.375,3.0488l.29.3301.291.3301-.291.3301-.29.3301a23.658,23.658,0,0,1-3.375,3.0488C17.2363,17.1582,14.6484,18.5762,12,18.5762ZM3.5723,11.999a22.10333,22.10333,0,0,0,3.459,2.8164A9.58058,9.58058,0,0,0,12,16.5762a9.58643,9.58643,0,0,0,4.9727-1.7598,22.09178,22.09178,0,0,0,3.455-2.8154,22.10173,22.10173,0,0,0-3.4589-2.8164A9.58091,9.58091,0,0,0,12,7.4238,9.58643,9.58643,0,0,0,7.0273,9.1836,22.09656,22.09656,0,0,0,3.5723,11.999Z"/><path d="M12,7.9375a4.05064,4.05064,0,1,0,1.582.3193A4.048,4.048,0,0,0,12,7.9375Zm-1.4736,3.4902a1.273,1.273,0,1,1,.497-.1006A1.25423,1.25423,0,0,1,10.5264,11.4277Z"/></svg>