<?xml version="1.0" encoding="utf-8"?>
<!-- Generator: Adobe Illustrator 16.0.5, SVG Export Plug-In . SVG Version: 6.00 Build 0)  -->
<!DOCTYPE svg PUBLIC "-//W3C//DTD SVG 1.1//EN" "http://www.w3.org/Graphics/SVG/1.1/DTD/svg11.dtd">
<svg version="1.1" id="Layer_1" xmlns="http://www.w3.org/2000/svg" xmlns:xlink="http://www.w3.org/1999/xlink" x="0px" y="0px"
	 width="24px" height="24px" viewBox="0 0 24 24" enable-background="new 0 0 24 24" xml:space="preserve">
<path d="M13.315,12.183v-9.01c0-0.726-0.589-1.315-1.315-1.315s-1.314,0.589-1.314,1.315v9.01H7.708L12,19.735l4.292-7.553H13.315z"
	/>
<path d="M21.344,22.142H2.656c-0.69,0-1.25-0.56-1.25-1.25v-2.312c0-0.69,0.56-1.25,1.25-1.25s1.25,0.56,1.25,1.25v1.062h16.188
	v-1.062c0-0.69,0.56-1.25,1.25-1.25s1.25,0.56,1.25,1.25v2.312C22.594,21.582,22.034,22.142,21.344,22.142z"/>
</svg>
