<svg xmlns="http://www.w3.org/2000/svg" viewBox="0 0 24 24"><title>chartaccent-icons</title><path d="M9,21.5a1.50163,1.50163,0,0,1-1.13867-.5234l-6-7a1.50011,1.50011,0,0,1,2.27734-1.9532L8.96,17.6484,19.8301,4.0625a1.5,1.5,0,0,1,2.3418,1.875l-12,15A1.50209,1.50209,0,0,1,9.02539,21.5Z"/><path d="M4.89746,11.3721,5,11.4922V9h9.5977l1.5996-2H3v3.501A2.49811,2.49811,0,0,1,4.89746,11.3721Z"/><path d="M16,15.2529V20H12.2021l-1.25,1.5625A2.4886,2.4886,0,0,1,10.4883,22H18V12.752Z"/><path d="M7.10254,21.6279,5.707,20H5v-.8252l-2-2.333V22H7.5A2.54979,2.54979,0,0,1,7.10254,21.6279Z"/><path d="M9,21.5a1.50163,1.50163,0,0,1-1.13867-.5234l-6-7a1.50011,1.50011,0,0,1,2.27734-1.9532L8.96,17.6484,19.8301,4.0625a1.5,1.5,0,0,1,2.3418,1.875l-12,15A1.50209,1.50209,0,0,1,9.02539,21.5Z"/></svg>