<?xml version="1.0" encoding="utf-8"?>
<!-- Generator: Adobe Illustrator 16.0.5, SVG Export Plug-In . SVG Version: 6.00 Build 0)  -->
<!DOCTYPE svg PUBLIC "-//W3C//DTD SVG 1.1//EN" "http://www.w3.org/Graphics/SVG/1.1/DTD/svg11.dtd">
<svg version="1.1" id="Layer_1" xmlns="http://www.w3.org/2000/svg" xmlns:xlink="http://www.w3.org/1999/xlink" x="0px" y="0px"
	 width="24px" height="24px" viewBox="0 0 24 24" enable-background="new 0 0 24 24" xml:space="preserve">
<g>
	<path d="M10.897,14.401c0-0.698,0.087-1.256,0.26-1.671c0.173-0.415,0.517-0.871,1.029-1.366c0.512-0.497,0.835-0.851,0.972-1.061
		c0.209-0.319,0.314-0.665,0.314-1.037c0-0.492-0.121-0.87-0.364-1.128c-0.243-0.259-0.604-0.39-1.077-0.39
		c-0.452,0-0.813,0.127-1.089,0.381c-0.276,0.253-0.414,0.598-0.414,1.031H8.615c0.011-0.93,0.327-1.666,0.949-2.208
		c0.622-0.541,1.444-0.811,2.468-0.811c1.056,0,1.879,0.267,2.47,0.803s0.886,1.285,0.886,2.247c0,0.856-0.4,1.699-1.197,2.529
		l-0.968,0.954c-0.348,0.394-0.525,0.968-0.537,1.725H10.897z M10.764,16.849c0-0.311,0.097-0.562,0.291-0.752
		c0.194-0.188,0.457-0.285,0.788-0.285c0.336,0,0.601,0.098,0.794,0.293c0.196,0.197,0.294,0.442,0.294,0.744
		c0,0.283-0.096,0.525-0.285,0.72c-0.189,0.193-0.457,0.29-0.803,0.29c-0.347,0-0.611-0.097-0.798-0.29
		C10.858,17.374,10.764,17.132,10.764,16.849z"/>
</g>
<path d="M12,22.266c-1.415,0-2.764-0.287-3.992-0.808c-1.228-0.52-2.334-1.271-3.264-2.201c-0.93-0.931-1.683-2.037-2.203-3.265
	C2.021,14.764,1.734,13.416,1.734,12c0-1.415,0.288-2.764,0.808-3.992c0.52-1.228,1.273-2.335,2.203-3.264
	c0.929-0.93,2.036-1.683,3.264-2.203C9.236,2.021,10.585,1.734,12,1.734c1.416,0,2.764,0.288,3.993,0.808
	c1.227,0.52,2.333,1.273,3.264,2.203c0.929,0.929,1.682,2.036,2.201,3.264c0.521,1.228,0.809,2.577,0.809,3.992
	c0,1.416-0.288,2.764-0.809,3.992c-0.52,1.228-1.272,2.334-2.201,3.265c-0.931,0.93-2.037,1.682-3.264,2.201
	C14.765,21.979,13.416,22.266,12,22.266z M12,3.309c-1.198,0-2.341,0.244-3.38,0.685c-1.04,0.44-1.977,1.078-2.763,1.864
	C5.071,6.644,4.434,7.581,3.994,8.62C3.553,9.659,3.309,10.801,3.309,12c0,1.198,0.244,2.341,0.685,3.38
	c0.44,1.039,1.078,1.976,1.864,2.764c0.787,0.786,1.723,1.424,2.763,1.863c1.039,0.44,2.182,0.685,3.38,0.685
	c1.198,0,2.34-0.244,3.38-0.685c1.038-0.439,1.975-1.077,2.763-1.863c0.786-0.788,1.424-1.725,1.863-2.764
	c0.44-1.039,0.684-2.182,0.684-3.38c0-1.199-0.243-2.341-0.684-3.38c-0.439-1.04-1.077-1.976-1.863-2.763
	c-0.788-0.786-1.725-1.424-2.763-1.864C14.341,3.553,13.198,3.309,12,3.309z"/>
</svg>
