<?xml version="1.0" encoding="utf-8"?>
<!-- Generator: Adobe Illustrator 16.0.5, SVG Export Plug-In . SVG Version: 6.00 Build 0)  -->
<!DOCTYPE svg PUBLIC "-//W3C//DTD SVG 1.1//EN" "http://www.w3.org/Graphics/SVG/1.1/DTD/svg11.dtd">
<svg version="1.1" id="Layer_1" xmlns="http://www.w3.org/2000/svg" xmlns:xlink="http://www.w3.org/1999/xlink" x="0px" y="0px"
	 width="24px" height="24px" viewBox="0 0 24 24" enable-background="new 0 0 24 24" xml:space="preserve">
<path d="M13.314,9.41h2.978L12,1.857L7.708,9.409h2.978v8.01c0,0.726,0.588,1.315,1.314,1.315c0.727,0,1.314-0.59,1.314-1.315V9.41
	L13.314,9.41z"/>
<path d="M21.344,22.143H2.656c-0.69,0-1.25-0.561-1.25-1.25V18.58c0-0.689,0.56-1.25,1.25-1.25c0.69,0,1.25,0.561,1.25,1.25v1.062
	h16.188V18.58c0-0.689,0.561-1.25,1.25-1.25c0.69,0,1.25,0.561,1.25,1.25v2.312C22.594,21.582,22.034,22.143,21.344,22.143z"/>
</svg>
