<svg xmlns="http://www.w3.org/2000/svg" viewBox="0 0 24 24"><title>chartaccent-icons</title><rect x="6.38769" y="20.1821" width="1.2246" height="1.2774" style="fill:#231815"/><path d="M11.94239,13.0688a2.52625,2.52625,0,0,0-2.502,1.9102,7.26765,7.26765,0,0,0-.3691,2.4551,6.01028,6.01028,0,0,0,.6152,2.9414,2.41739,2.41739,0,0,0,2.25,1.3125,2.4958,2.4958,0,0,0,2.4141-1.6055,6.84362,6.84362,0,0,0,.5098-2.8301,6.00348,6.00348,0,0,0-.5625-2.8418A2.4794,2.4794,0,0,0,11.94239,13.0688Zm1.2939,6.9317a1.5,1.5,0,0,1-2.7529-.4629,6.33785,6.33785,0,0,1-.27539-2.0625,6.03352,6.03352,0,0,1,.43159-2.5811,1.42907,1.42907,0,0,1,1.3643-.8759,1.33932,1.33932,0,0,1,1.3672.9228,6.6654,6.6654,0,0,1,.3525,2.3526A5.24787,5.24787,0,0,1,13.23629,20.0005Z" style="fill:#231815"/><path d="M18.61619,13.0688a2.52606,2.52606,0,0,0-2.5019,1.9102,7.2675,7.2675,0,0,0-.3692,2.4551,6.00909,6.00909,0,0,0,.6153,2.9414,2.41719,2.41719,0,0,0,2.25,1.3125,2.49577,2.49577,0,0,0,2.414-1.6055,6.842,6.842,0,0,0,.5098-2.8301,6.00348,6.00348,0,0,0-.5625-2.8418A2.4794,2.4794,0,0,0,18.61619,13.0688Zm1.294,6.9317a1.50007,1.50007,0,0,1-2.753-.4629,6.33782,6.33782,0,0,1-.2754-2.0625,6.03175,6.03175,0,0,1,.4317-2.5811,1.42894,1.42894,0,0,1,1.3642-.8759,1.33932,1.33932,0,0,1,1.3672.9228,6.66291,6.66291,0,0,1,.3526,2.3526A5.24787,5.24787,0,0,1,19.91019,20.0005Z" style="fill:#231815"/><rect x="13.06149" y="9.4258" width="1.2246" height="1.2773" style="fill:#231815"/><path d="M18.61039,10.9316a2.49568,2.49568,0,0,0,2.414-1.6054,6.84232,6.84232,0,0,0,.5098-2.8301,6.00321,6.00321,0,0,0-.5625-2.8418,2.4794,2.4794,0,0,0-2.3555-1.3418,2.526,2.526,0,0,0-2.5019,1.9102,7.26649,7.26649,0,0,0-.3692,2.455,6.00883,6.00883,0,0,0,.6153,2.9414A2.41719,2.41719,0,0,0,18.61039,10.9316Zm-1.2969-6.7939a1.42888,1.42888,0,0,1,1.3642-.876,1.33928,1.33928,0,0,1,1.3672.9229,6.66231,6.66231,0,0,1,.3526,2.3525,5.24762,5.24762,0,0,1-.4873,2.707,1.50007,1.50007,0,0,1-2.753-.4629,6.33782,6.33782,0,0,1-.2754-2.0625A6.03124,6.03124,0,0,1,17.31349,4.1377Z" style="fill:#231815"/><path d="M11.96579,5.1807h-4V2.9043a.35715.35715,0,0,0-.2685-.3218.51411.51411,0,0,0-.4727.0752L2.5928,6.375a.30292.30292,0,0,0,0,.4932l4.63179,3.7172a.51509.51509,0,0,0,.4727.0757.35808.35808,0,0,0,.2685-.3222V7.9307h4Z" style="fill:#231815"/></svg>