<svg xmlns="http://www.w3.org/2000/svg" viewBox="0 0 24 24"><title>chartaccent-icons</title><polygon points="18.902 2 18.902 4.064 19.935 4.064 19.935 5.097 22 5.097 22 2 18.902 2"/><rect x="12.8262" y="2" width="4.4199" height="2.0644"/><rect x="6.752" y="2" width="4.4179" height="2.0644"/><polygon points="2 5.097 4.064 5.097 4.064 4.064 5.096 4.064 5.096 2 2 2 2 5.097"/><rect x="2" y="6.7534" width="2.0645" height="4.418"/><rect x="2" y="12.8281" width="2.0645" height="4.418"/><polygon points="4.064 18.903 2 18.903 2 22 5.096 22 5.096 19.935 4.064 19.935 4.064 18.903"/><rect x="12.8281" y="19.9355" width="4.418" height="2.06449"/><rect x="6.7539" y="19.9355" width="4.418" height="2.06449"/><polygon points="19.935 19.935 18.902 19.935 18.902 22 22 22 22 18.903 19.935 18.903 19.935 19.935"/><rect x="19.9355" y="6.7529" width="2.0645" height="4.4185"/><rect x="19.9355" y="12.8281" width="2.0645" height="4.418"/></svg>