<?xml version="1.0" encoding="utf-8"?>
<!-- Generator: Adobe Illustrator 16.0.5, SVG Export Plug-In . SVG Version: 6.00 Build 0)  -->
<!DOCTYPE svg PUBLIC "-//W3C//DTD SVG 1.1//EN" "http://www.w3.org/Graphics/SVG/1.1/DTD/svg11.dtd">
<svg version="1.1" id="Layer_1" xmlns="http://www.w3.org/2000/svg" xmlns:xlink="http://www.w3.org/1999/xlink" x="0px" y="0px"
	 width="24px" height="24px" viewBox="0 0 24 24" enable-background="new 0 0 24 24" xml:space="preserve">
<path d="M12,22.266c-1.415,0-2.764-0.287-3.992-0.808s-2.334-1.271-3.264-2.201c-0.93-0.931-1.683-2.036-2.203-3.265
	S1.734,13.416,1.734,12c0-1.415,0.288-2.764,0.808-3.992s1.273-2.335,2.203-3.264c0.929-0.93,2.036-1.683,3.264-2.203
	C9.236,2.021,10.585,1.734,12,1.734c1.416,0,2.764,0.288,3.993,0.808c1.228,0.52,2.333,1.273,3.264,2.203
	c0.929,0.929,1.683,2.036,2.201,3.264c0.521,1.228,0.81,2.577,0.81,3.992c0,1.416-0.289,2.765-0.81,3.992s-1.272,2.334-2.201,3.265
	c-0.931,0.93-2.036,1.682-3.264,2.201S13.416,22.266,12,22.266z M12,3.309c-1.198,0-2.341,0.244-3.38,0.685
	c-1.04,0.44-1.977,1.078-2.763,1.864S4.434,7.581,3.994,8.62C3.553,9.659,3.309,10.801,3.309,12c0,1.198,0.244,2.341,0.685,3.38
	c0.44,1.039,1.078,1.976,1.864,2.765c0.787,0.785,1.723,1.424,2.763,1.862c1.039,0.44,2.182,0.685,3.38,0.685
	c1.198,0,2.34-0.243,3.38-0.685c1.038-0.438,1.975-1.077,2.764-1.862c0.785-0.789,1.424-1.726,1.862-2.765
	c0.44-1.039,0.685-2.182,0.685-3.38c0-1.199-0.243-2.341-0.685-3.38c-0.438-1.04-1.077-1.976-1.862-2.763
	c-0.789-0.786-1.726-1.424-2.764-1.864C14.341,3.553,13.198,3.309,12,3.309z"/>
<path d="M18.802,10.203l-2.515-2.542c-0.113-0.114-0.267-0.178-0.427-0.178H12.8V6.417c0-0.442-0.358-0.8-0.8-0.8
	s-0.8,0.358-0.8,0.8v1.067H6.792c-0.332,0-0.6,0.269-0.6,0.6v5.083c0,0.331,0.269,0.6,0.6,0.6H11.2v4.818c0,0.441,0.358,0.8,0.8,0.8
	s0.8-0.358,0.8-0.8v-4.818h3.061c0.16,0,0.313-0.063,0.427-0.178l2.515-2.541C19.033,10.813,19.033,10.437,18.802,10.203z
	 M15.61,12.566H7.392V8.684h8.219l1.921,1.941L15.61,12.566z"/>
</svg>
