<svg xmlns="http://www.w3.org/2000/svg" viewBox="0 0 24 24"><title>chartaccent-icons</title><rect x="6.38769" y="9.4258" width="1.2246" height="1.2773" style="fill:#231815"/><path d="M11.94239,2.3125a2.52614,2.52614,0,0,0-2.502,1.9102,7.26663,7.26663,0,0,0-.3691,2.455,6.01,6.01,0,0,0,.6152,2.9414,2.41739,2.41739,0,0,0,2.25,1.3125,2.49572,2.49572,0,0,0,2.4141-1.6054,6.84394,6.84394,0,0,0,.5098-2.8301,6.00321,6.00321,0,0,0-.5625-2.8418A2.4794,2.4794,0,0,0,11.94239,2.3125Zm1.2939,6.9316a1.5,1.5,0,0,1-2.7529-.4629A6.33785,6.33785,0,0,1,10.208,6.7187a6.033,6.033,0,0,1,.43159-2.581,1.429,1.429,0,0,1,1.3643-.876,1.33928,1.33928,0,0,1,1.3672.9229,6.6648,6.6648,0,0,1,.3525,2.3525A5.24762,5.24762,0,0,1,13.23629,9.2441Z" style="fill:#231815"/><path d="M18.61039,10.9316a2.49568,2.49568,0,0,0,2.414-1.6054,6.84232,6.84232,0,0,0,.5098-2.8301,6.00321,6.00321,0,0,0-.5625-2.8418,2.4794,2.4794,0,0,0-2.3555-1.3418,2.526,2.526,0,0,0-2.5019,1.9102,7.26649,7.26649,0,0,0-.3692,2.455,6.00883,6.00883,0,0,0,.6153,2.9414A2.41719,2.41719,0,0,0,18.61039,10.9316Zm-1.2969-6.7939a1.42888,1.42888,0,0,1,1.3642-.876,1.33928,1.33928,0,0,1,1.3672.9229,6.66231,6.66231,0,0,1,.3526,2.3525,5.24762,5.24762,0,0,1-.4873,2.707,1.50007,1.50007,0,0,1-2.753-.4629,6.33782,6.33782,0,0,1-.2754-2.0625A6.03124,6.03124,0,0,1,17.31349,4.1377Z" style="fill:#231815"/><rect x="13.06149" y="20.1821" width="1.2246" height="1.2774" style="fill:#231815"/><path d="M18.61619,13.0688a2.52606,2.52606,0,0,0-2.5019,1.9102,7.2675,7.2675,0,0,0-.3692,2.4551,6.00909,6.00909,0,0,0,.6153,2.9414,2.41719,2.41719,0,0,0,2.25,1.3125,2.49577,2.49577,0,0,0,2.414-1.6055,6.842,6.842,0,0,0,.5098-2.8301,6.00348,6.00348,0,0,0-.5625-2.8418A2.4794,2.4794,0,0,0,18.61619,13.0688Zm1.294,6.9317a1.50007,1.50007,0,0,1-2.753-.4629,6.33782,6.33782,0,0,1-.2754-2.0625,6.03175,6.03175,0,0,1,.4317-2.5811,1.42894,1.42894,0,0,1,1.3642-.8759,1.33932,1.33932,0,0,1,1.3672.9228,6.66291,6.66291,0,0,1,.3526,2.3526A5.24787,5.24787,0,0,1,19.91019,20.0005Z" style="fill:#231815"/><path d="M7.207,13.4146a.51331.51331,0,0,0-.47261-.0752.35714.35714,0,0,0-.2686.3217v2.2764h-4v2.75h4v2.4082a.3583.3583,0,0,0,.2686.3223.51543.51543,0,0,0,.47261-.0757l4.63189-3.7173a.30305.30305,0,0,0,0-.4932Z" style="fill:#231815"/></svg>