<svg xmlns="http://www.w3.org/2000/svg" viewBox="0 0 24 24"><title>chartaccent-icons</title><path d="M12.012,4.09319a.52484.52484,0,0,1,.37271.15443l5.62262,5.6226a.52689.52689,0,0,1-.3727.89983H6.3894a.52689.52689,0,0,1-.37271-.89983l5.62262-5.6226A.52484.52484,0,0,1,12.012,4.09319Z" style="fill:#231815"/><path d="M11.988,19.90681a.52478.52478,0,0,1-.37271-.15441L5.99265,14.12976A.52687.52687,0,0,1,6.36536,13.23H17.61061a.52687.52687,0,0,1,.3727.89981L12.36069,19.7524A.52478.52478,0,0,1,11.988,19.90681Z" style="fill:#231815"/></svg>