<?xml version="1.0" encoding="utf-8"?>
<!-- Generator: Adobe Illustrator 16.0.5, SVG Export Plug-In . SVG Version: 6.00 Build 0)  -->
<!DOCTYPE svg PUBLIC "-//W3C//DTD SVG 1.1//EN" "http://www.w3.org/Graphics/SVG/1.1/DTD/svg11.dtd">
<svg version="1.1" id="Layer_1" xmlns="http://www.w3.org/2000/svg" xmlns:xlink="http://www.w3.org/1999/xlink" x="0px" y="0px"
	 width="24px" height="24px" viewBox="0 0 24 24" enable-background="new 0 0 24 24" xml:space="preserve">
<path d="M16.7480469,15.5898438L13.1582031,12l3.5898438-3.5898438c0.3203125-0.3203125,0.3203125-0.8378906,0-1.1582031
	s-0.8378906-0.3203125-1.1582031,0L12,10.8417969L8.4101562,7.2519531c-0.3203125-0.3203125-0.8378906-0.3203125-1.1582031,0
	c-0.3193359,0.3203125-0.3193359,0.8378906,0,1.1582031L10.8417969,12l-3.5898438,3.5898438
	c-0.3193359,0.3203125-0.3193359,0.8378906,0,1.1582031c0.3203125,0.3203125,0.8378906,0.3203125,1.1582031,0L12,13.1582031
	l3.5898438,3.5898438c0.3203125,0.3203125,0.8378906,0.3203125,1.1582031,0S17.0683594,15.9101562,16.7480469,15.5898438z"/>
</svg>
