<?xml version="1.0" encoding="utf-8"?>
<!-- Generator: Adobe Illustrator 16.0.5, SVG Export Plug-In . SVG Version: 6.00 Build 0)  -->
<!DOCTYPE svg PUBLIC "-//W3C//DTD SVG 1.1//EN" "http://www.w3.org/Graphics/SVG/1.1/DTD/svg11.dtd">
<svg version="1.1" id="Layer_1" xmlns="http://www.w3.org/2000/svg" xmlns:xlink="http://www.w3.org/1999/xlink" x="0px" y="0px"
	 width="24px" height="24px" viewBox="0 0 24 24" enable-background="new 0 0 24 24" xml:space="preserve">
<g transform="translate(0,-952.36218)">
	<path d="M2.998,957.835c-0.486,0-0.9,0.412-0.9,0.9v11.253c0,0.489,0.414,0.901,0.9,0.901h18.005c0.486,0,0.898-0.412,0.898-0.901
		v-11.253c0-0.488-0.412-0.9-0.898-0.9H2.998z M3.582,959.186h16.836L12,965.755L3.582,959.186z M3.448,960.789l4.564,3.566
		l-4.564,4.276V960.789z M20.553,960.789v7.842l-4.563-4.276L20.553,960.789z M9.088,965.191l2.497,1.948
		c0.245,0.189,0.585,0.189,0.83,0l2.497-1.948l4.635,4.347H4.454L9.088,965.191z"/>
</g>
</svg>
