<svg xmlns="http://www.w3.org/2000/svg" viewBox="0 0 24 24"><title>chartaccent-icons</title><path d="M2,7A.99979.99979,0,0,0,3,8H6.4004V6H3A.99979.99979,0,0,0,2,7Z" style="fill:#231815"/><path d="M21,6H10V8H21a1,1,0,0,0,0-2Z" style="fill:#231815"/><path d="M8.2002,4a.99972.99972,0,0,0-1,1V9a1,1,0,1,0,2,0V5A.99979.99979,0,0,0,8.2002,4Z" style="fill:#231815"/><path d="M2,12a.99979.99979,0,0,0,1,1H15V11H3A.99979.99979,0,0,0,2,12Z" style="fill:#231815"/><path d="M21,11H18.5996v2H21a1,1,0,0,0,0-2Z" style="fill:#231815"/><path d="M16.7998,9a.99979.99979,0,0,0-1,1v4a1,1,0,0,0,2,0V10A.99972.99972,0,0,0,16.7998,9Z" style="fill:#231815"/><path d="M2,17a.99979.99979,0,0,0,1,1H9.4004V16H3A.99979.99979,0,0,0,2,17Z" style="fill:#231815"/><path d="M21,16H13v2h8a1,1,0,0,0,0-2Z" style="fill:#231815"/><path d="M11.2002,14a.99972.99972,0,0,0-1,1v4a1,1,0,0,0,2,0V15A.99979.99979,0,0,0,11.2002,14Z" style="fill:#231815"/></svg>