<svg xmlns="http://www.w3.org/2000/svg" viewBox="0 0 24 24"><title>chartaccent-icons</title><path d="M12.915,12a1.49565,1.49565,0,0,0-.3212-.9277L9.7285,7.4316,6.8643,3.791A1.50006,1.50006,0,1,0,4.5068,5.6465L7.0059,8.8242,9.5059,12l-2.5,3.1768L4.5068,18.3535A1.50006,1.50006,0,0,0,6.8643,20.209l2.8642-3.6406,2.8653-3.6407A1.49153,1.49153,0,0,0,12.915,12Z"/><path d="M19.4932,11.0723,16.6289,7.4316,13.7637,3.791a1.5,1.5,0,0,0-2.3574,1.8555l2.5,3.1777L16.4053,12l-2.499,3.1768-2.5,3.1767a1.50194,1.50194,0,0,0,.6953,2.3486,1.51585,1.51585,0,0,0,.4824.0792,1.5006,1.5006,0,0,0,1.1797-.5723l2.8652-3.6406,2.8643-3.6407a1.49994,1.49994,0,0,0,0-1.8554Z"/></svg>