<?xml version="1.0" encoding="utf-8"?>
<!-- Generator: Adobe Illustrator 16.0.5, SVG Export Plug-In . SVG Version: 6.00 Build 0)  -->
<!DOCTYPE svg PUBLIC "-//W3C//DTD SVG 1.1//EN" "http://www.w3.org/Graphics/SVG/1.1/DTD/svg11.dtd">
<svg version="1.1" id="Layer_1" xmlns="http://www.w3.org/2000/svg" xmlns:xlink="http://www.w3.org/1999/xlink" x="0px" y="0px"
	 width="24px" height="24px" viewBox="0 0 24 24" enable-background="new 0 0 24 24" xml:space="preserve">
<path d="M19.2480469,17.4804688l-5.4804688-5.4814453l5.4804688-5.4804688c0.4882812-0.4882812,0.4882812-1.2783203,0-1.7666016
	s-1.2792969-0.4882812-1.7675781,0L12,10.2314453L6.5195312,4.7519531c-0.4882812-0.4882812-1.2792969-0.4882812-1.7675781,0
	s-0.4882812,1.2783203,0,1.7666016l5.4804688,5.4804688l-5.4804688,5.4814453c-0.4882812,0.4882812-0.4882812,1.2792969,0,1.7675781
	s1.2792969,0.4882812,1.7675781,0L12,13.7666016l5.4804688,5.4814453c0.4882812,0.4882812,1.2792969,0.4882812,1.7675781,0
	S19.7363281,17.96875,19.2480469,17.4804688z"/>
</svg>
