<svg xmlns="http://www.w3.org/2000/svg" viewBox="0 0 24 24"><title>chartaccent-icons</title><path d="M21.8301,4.5566H9.3076L9.1782,8.6494h.5401a3.87967,3.87967,0,0,1,1.0004-2.293,4.26245,4.26245,0,0,1,2.5035-.5234h1.2431V16.8066a2.85624,2.85624,0,0,1-.3452,1.7715,3.11086,3.11086,0,0,1-1.7529.459v.4063h6.457v-.4063a3.70527,3.70527,0,0,1-1.7529-.4014q-.39915-.30165-.3999-1.5712V5.833h1.2324a4.11736,4.11736,0,0,1,2.5254.5283,4.46817,4.46817,0,0,1,.9902,2.2881h.5298Z"/><path d="M8.0933,14.002A3.0098,3.0098,0,1,0,5.084,17.0098,3.01044,3.01044,0,0,0,8.0933,14.002Z"/></svg>