<?xml version="1.0" encoding="utf-8"?>
<!-- Generator: Adobe Illustrator 16.0.5, SVG Export Plug-In . SVG Version: 6.00 Build 0)  -->
<!DOCTYPE svg PUBLIC "-//W3C//DTD SVG 1.1//EN" "http://www.w3.org/Graphics/SVG/1.1/DTD/svg11.dtd">
<svg version="1.1" id="Layer_1" xmlns="http://www.w3.org/2000/svg" xmlns:xlink="http://www.w3.org/1999/xlink" x="0px" y="0px"
	 width="24px" height="24px" viewBox="0 0 24 24" enable-background="new 0 0 24 24" xml:space="preserve">
<g>
	<rect x="6.3876953" y="20.1821289" fill="#231815" width="1.2246094" height="1.2773438"/>
	<path fill="#231815" d="M11.9423828,13.0688477c-1.2070312,0-2.0410156,0.6367188-2.5019531,1.9101562
		c-0.2460938,0.6835938-0.3691406,1.5019531-0.3691406,2.4550781c0,1.2304688,0.2050781,2.2109375,0.6152344,2.9414062
		c0.4921875,0.875,1.2421875,1.3125,2.25,1.3125c1.1171875,0,1.921875-0.5351562,2.4140625-1.6054688
		c0.3398438-0.7460938,0.5097656-1.6894531,0.5097656-2.8300781c0-1.203125-0.1875-2.1503906-0.5625-2.8417969
		C13.8134766,13.5161133,13.0283203,13.0688477,11.9423828,13.0688477z M13.2363281,20.0004883
		c-0.3242188,0.484375-0.7607422,0.7265625-1.3085938,0.7265625c-0.6806641,0-1.1621094-0.3964844-1.4443359-1.1894531
		c-0.1835938-0.5195312-0.2753906-1.2070312-0.2753906-2.0625c0-1.1367188,0.1435547-1.9970703,0.4316406-2.5810547
		c0.2871094-0.5839844,0.7421875-0.8759766,1.3642578-0.8759766c0.6767578,0,1.1328125,0.3076172,1.3671875,0.9228516
		c0.2353516,0.6152344,0.3525391,1.3994141,0.3525391,2.3525391C13.7236328,18.6137695,13.5615234,19.5161133,13.2363281,20.0004883
		z"/>
	<path fill="#231815" d="M18.6162109,13.0688477c-1.2070312,0-2.0410156,0.6367188-2.5019531,1.9101562
		c-0.2460938,0.6835938-0.3691406,1.5019531-0.3691406,2.4550781c0,1.2304688,0.2050781,2.2109375,0.6152344,2.9414062
		c0.4921875,0.875,1.2421875,1.3125,2.25,1.3125c1.1171875,0,1.921875-0.5351562,2.4140625-1.6054688
		c0.3398438-0.7460938,0.5097656-1.6894531,0.5097656-2.8300781c0-1.203125-0.1875-2.1503906-0.5625-2.8417969
		C20.4873047,13.5161133,19.7021484,13.0688477,18.6162109,13.0688477z M19.9101562,20.0004883
		c-0.3242188,0.484375-0.7607422,0.7265625-1.3085938,0.7265625c-0.6806641,0-1.1621094-0.3964844-1.4443359-1.1894531
		c-0.1835938-0.5195312-0.2753906-1.2070312-0.2753906-2.0625c0-1.1367188,0.1435547-1.9970703,0.4316406-2.5810547
		c0.2871094-0.5839844,0.7421875-0.8759766,1.3642578-0.8759766c0.6767578,0,1.1328125,0.3076172,1.3671875,0.9228516
		c0.2353516,0.6152344,0.3525391,1.3994141,0.3525391,2.3525391C20.3974609,18.6137695,20.2353516,19.5161133,19.9101562,20.0004883
		z"/>
	<rect x="13.0615234" y="9.4257812" fill="#231815" width="1.2246094" height="1.2773438"/>
	<path fill="#231815" d="M18.6103516,10.9316406c1.1171875,0,1.921875-0.5351562,2.4140625-1.6054688
		c0.3398438-0.7460938,0.5097656-1.6894531,0.5097656-2.8300781c0-1.203125-0.1875-2.1503906-0.5625-2.8417969
		C20.4873047,2.7597656,19.7021484,2.3125,18.6162109,2.3125c-1.2070312,0-2.0410156,0.6367188-2.5019531,1.9101562
		c-0.2460938,0.6835938-0.3691406,1.5019531-0.3691406,2.4550781c0,1.2304688,0.2050781,2.2109375,0.6152344,2.9414062
		C16.8525391,10.4941406,17.6025391,10.9316406,18.6103516,10.9316406z M17.3134766,4.1376953
		c0.2871094-0.5839844,0.7421875-0.8759766,1.3642578-0.8759766c0.6767578,0,1.1328125,0.3076172,1.3671875,0.9228516
		c0.2353516,0.6152344,0.3525391,1.3994141,0.3525391,2.3525391c0,1.3203125-0.1621094,2.2226562-0.4873047,2.7070312
		c-0.3242188,0.484375-0.7607422,0.7265625-1.3085938,0.7265625c-0.6806641,0-1.1621094-0.3964844-1.4443359-1.1894531
		c-0.1835938-0.5195312-0.2753906-1.2070312-0.2753906-2.0625C16.8818359,5.5820312,17.0253906,4.7216797,17.3134766,4.1376953z"/>
	<path fill="#231815" d="M11.9658203,5.1806641h-4V2.9042969c0-0.1411133-0.1064453-0.2680664-0.2685547-0.3217773
		S7.3476562,2.5581055,7.2246094,2.6577148L2.5927734,6.375C2.5078125,6.4433594,2.4658203,6.5322266,2.4658203,6.621582
		s0.0419922,0.1782227,0.1269531,0.246582l4.6318359,3.7172852c0.1230469,0.0996094,0.3105469,0.1289062,0.4726562,0.0756836
		c0.1621094-0.0541992,0.2685547-0.1811523,0.2685547-0.3222656V7.9306641h4V5.1806641z"/>
</g>
</svg>
