<?xml version="1.0" encoding="utf-8"?>
<!-- Generator: Adobe Illustrator 16.0.5, SVG Export Plug-In . SVG Version: 6.00 Build 0)  -->
<!DOCTYPE svg PUBLIC "-//W3C//DTD SVG 1.1//EN" "http://www.w3.org/Graphics/SVG/1.1/DTD/svg11.dtd">
<svg version="1.1" id="Layer_1" xmlns="http://www.w3.org/2000/svg" xmlns:xlink="http://www.w3.org/1999/xlink" x="0px" y="0px"
	 width="24px" height="24px" viewBox="0 0 24 24" enable-background="new 0 0 24 24" xml:space="preserve">
<g>
	<path fill="#231815" d="M8.4804688,9.0004883l-4.0292969,10.699707h1.484375l1.1601562-3.2045898h4.1992188l1.1171875,3.2045898H14
		l-3.8847656-10.699707H8.4804688z M7.5244141,15.3164062l1.7119141-4.7280273l1.6474609,4.7280273H7.5244141z"/>
	<path fill="#231815" d="M21.9658203,2.2724609c-0.0673828-0.1645508-0.2285156-0.2719727-0.4072266-0.2719727h-9.4072266
		c-0.1787109,0-0.3398438,0.1074219-0.4072266,0.2719727c-0.0683594,0.1645508-0.0302734,0.3544922,0.0957031,0.480957
		l4.7041016,4.703125c0.0859375,0.0859375,0.1972656,0.1298828,0.3115234,0.1298828
		c0.1132812,0,0.2255859-0.0439453,0.3115234-0.1298828l4.703125-4.703125
		C21.9980469,2.6269531,22.0341797,2.4370117,21.9658203,2.2724609z"/>
</g>
</svg>
