<?xml version="1.0" encoding="utf-8"?>
<!-- Generator: Adobe Illustrator 16.0.5, SVG Export Plug-In . SVG Version: 6.00 Build 0)  -->
<!DOCTYPE svg PUBLIC "-//W3C//DTD SVG 1.1//EN" "http://www.w3.org/Graphics/SVG/1.1/DTD/svg11.dtd">
<svg version="1.1" id="Layer_1" xmlns="http://www.w3.org/2000/svg" xmlns:xlink="http://www.w3.org/1999/xlink" x="0px" y="0px"
	 width="24px" height="24px" viewBox="0 0 24 24" enable-background="new 0 0 24 24" xml:space="preserve">
<g>
	<path fill="#231815" d="M2,7c0,0.5527344,0.4477539,1,1,1h3.4003906V6H3C2.4477539,6,2,6.4472656,2,7z"/>
	<path fill="#231815" d="M21,6H10v2h11c0.5522461,0,1-0.4472656,1-1S21.5522461,6,21,6z"/>
	<path fill="#231815" d="M8.2001953,4c-0.5522461,0-1,0.4472656-1,1v4c0,0.5527344,0.4477539,1,1,1s1-0.4472656,1-1V5
		C9.2001953,4.4472656,8.7524414,4,8.2001953,4z"/>
</g>
<g>
	<path fill="#231815" d="M2,12c0,0.5527344,0.4477539,1,1,1h12v-2H3C2.4477539,11,2,11.4472656,2,12z"/>
	<path fill="#231815" d="M21,11h-2.4003906v2H21c0.5522461,0,1-0.4472656,1-1S21.5522461,11,21,11z"/>
	<path fill="#231815" d="M16.7998047,9c-0.5522461,0-1,0.4472656-1,1v4c0,0.5527344,0.4477539,1,1,1s1-0.4472656,1-1v-4
		C17.7998047,9.4472656,17.3520508,9,16.7998047,9z"/>
</g>
<g>
	<path fill="#231815" d="M2,17c0,0.5527344,0.4477539,1,1,1h6.4003906v-2H3C2.4477539,16,2,16.4472656,2,17z"/>
	<path fill="#231815" d="M21,16h-8v2h8c0.5522461,0,1-0.4472656,1-1S21.5522461,16,21,16z"/>
	<path fill="#231815" d="M11.2001953,14c-0.5522461,0-1,0.4472656-1,1v4c0,0.5527344,0.4477539,1,1,1s1-0.4472656,1-1v-4
		C12.2001953,14.4472656,11.7524414,14,11.2001953,14z"/>
</g>
</svg>
