<?xml version="1.0" encoding="utf-8"?>
<!-- Generator: Adobe Illustrator 16.0.5, SVG Export Plug-In . SVG Version: 6.00 Build 0)  -->
<!DOCTYPE svg PUBLIC "-//W3C//DTD SVG 1.1//EN" "http://www.w3.org/Graphics/SVG/1.1/DTD/svg11.dtd">
<svg version="1.1" id="Layer_1" xmlns="http://www.w3.org/2000/svg" xmlns:xlink="http://www.w3.org/1999/xlink" x="0px" y="0px"
	 width="24px" height="24px" viewBox="0 0 24 24" enable-background="new 0 0 24 24" xml:space="preserve">
<path d="M12,18.5761719c-2.6484375,0-5.2363281-1.4179688-7.1884766-2.8671875s-3.2685547-2.9277344-3.375-3.0488281
	l-0.2900391-0.3300781L0.8554688,12l0.2910156-0.3300781l0.2900391-0.3300781
	c0.1064453-0.1210938,1.4228516-1.5996094,3.375-3.0488281S9.3515625,5.4238281,12,5.4238281
	s5.2363281,1.4179688,7.1884766,2.8671875s3.2685547,2.9277344,3.375,3.0488281l0.2900391,0.3300781L23.1445312,12
	l-0.2910156,0.3300781l-0.2900391,0.3300781c-0.1064453,0.1210938-1.4228516,1.5996094-3.375,3.0488281
	S14.6484375,18.5761719,12,18.5761719z M3.5722656,11.9990234C4.28125,12.703125,5.5302734,13.8476562,7.03125,14.8154297
	c1.5,0.96875,3.2519531,1.7607422,4.96875,1.7607422c1.7207031,0,3.4736328-0.7919922,4.9726562-1.7597656
	c1.5-0.9677734,2.7460938-2.1113281,3.4550781-2.8154297C19.71875,11.296875,18.4697266,10.1523438,16.96875,9.1845703
	c-1.5-0.96875-3.2519531-1.7607422-4.96875-1.7607422c-1.7207031,0-3.4736328,0.7919922-4.9726562,1.7597656
	C5.5273438,10.1513672,4.28125,11.2949219,3.5722656,11.9990234z"/>
<path d="M12,7.9375c-0.5605469,0-1.0957031,0.1132812-1.5820312,0.3193359
	C9.9326172,8.4628906,9.4941406,8.7597656,9.1269531,9.1269531s-0.6640625,0.8056641-0.8701172,1.2910156
	C8.0507812,10.9042969,7.9375,11.4394531,7.9375,12s0.1132812,1.0957031,0.3193359,1.5820312
	c0.2060547,0.4853516,0.5029297,0.9238281,0.8701172,1.2910156s0.8056641,0.6640625,1.2910156,0.8701172
	C10.9042969,15.9492188,11.4394531,16.0625,12,16.0625s1.0957031-0.1132812,1.5820312-0.3193359
	c0.4853516-0.2060547,0.9238281-0.5029297,1.2910156-0.8701172s0.6640625-0.8056641,0.8701172-1.2910156
	C15.9492188,13.0957031,16.0625,12.5605469,16.0625,12s-0.1132812-1.0957031-0.3193359-1.5820312
	c-0.2060547-0.4853516-0.5029297-0.9238281-0.8701172-1.2910156s-0.8056641-0.6640625-1.2910156-0.8701172
	C13.0957031,8.0507812,12.5605469,7.9375,12,7.9375z M10.5263672,11.4277344c-0.1767578,0-0.3447266-0.0351562-0.4970703-0.1005859
	c-0.1523438-0.0644531-0.2900391-0.1572266-0.4052734-0.2734375c-0.1162109-0.1152344-0.2089844-0.2529297-0.2734375-0.4052734
	C9.2851562,10.4960938,9.25,10.328125,9.25,10.1513672s0.0351562-0.3447266,0.1005859-0.4970703
	c0.0644531-0.1523438,0.1572266-0.2900391,0.2734375-0.4052734c0.1152344-0.1162109,0.2529297-0.2089844,0.4052734-0.2734375
	C10.1816406,8.9101562,10.3496094,8.875,10.5263672,8.875s0.3447266,0.0351562,0.4970703,0.1005859
	c0.1523438,0.0644531,0.2900391,0.1572266,0.4052734,0.2734375c0.1162109,0.1152344,0.2089844,0.2529297,0.2734375,0.4052734
	c0.0654297,0.1523438,0.1005859,0.3203125,0.1005859,0.4970703s-0.0351562,0.3447266-0.1005859,0.4970703
	c-0.0644531,0.1523438-0.1572266,0.2900391-0.2734375,0.4052734c-0.1152344,0.1162109-0.2529297,0.2089844-0.4052734,0.2734375
	C10.8710938,11.3925781,10.703125,11.4277344,10.5263672,11.4277344z"/>
</svg>
