<?xml version="1.0" encoding="utf-8"?>
<!-- Generator: Adobe Illustrator 16.0.5, SVG Export Plug-In . SVG Version: 6.00 Build 0)  -->
<!DOCTYPE svg PUBLIC "-//W3C//DTD SVG 1.1//EN" "http://www.w3.org/Graphics/SVG/1.1/DTD/svg11.dtd">
<svg version="1.1" id="Layer_1" xmlns="http://www.w3.org/2000/svg" xmlns:xlink="http://www.w3.org/1999/xlink" x="0px" y="0px"
	 width="24px" height="24px" viewBox="0 0 24 24" enable-background="new 0 0 24 24" xml:space="preserve">
<g>
	<path fill="#231815" d="M8.0439453,6.0004883L2.2363281,21.4238281h2.1396484l1.6728516-4.6196289h6.0527344l1.609375,4.6196289H16
		L10.4013672,6.0004883H8.0439453z M6.6660156,15.1040039l2.4667969-6.8144531l2.3759766,6.8144531H6.6660156z"/>
	<path fill="#231815" d="M21.8720703,6.7592773L17.2412109,2.128418C17.15625,2.043457,17.0458984,2.0004883,16.9345703,2.0004883
		c-0.1123047,0-0.2216797,0.0429688-0.3066406,0.1279297l-4.6328125,4.6308594
		c-0.1240234,0.1240234-0.1611328,0.3115234-0.09375,0.4731445c0.0664062,0.1625977,0.2255859,0.2680664,0.4013672,0.2680664
		h9.2626953c0.1757812,0,0.3339844-0.1054688,0.4013672-0.2680664C22.0332031,7.0708008,21.9980469,6.8833008,21.8720703,6.7592773z
		"/>
</g>
</svg>
