<?xml version="1.0" encoding="utf-8"?>
<!-- Generator: Adobe Illustrator 16.0.5, SVG Export Plug-In . SVG Version: 6.00 Build 0)  -->
<!DOCTYPE svg PUBLIC "-//W3C//DTD SVG 1.1//EN" "http://www.w3.org/Graphics/SVG/1.1/DTD/svg11.dtd">
<svg version="1.1" id="Layer_1" xmlns="http://www.w3.org/2000/svg" xmlns:xlink="http://www.w3.org/1999/xlink" x="0px" y="0px"
	 width="24px" height="24px" viewBox="0 0 24 24" enable-background="new 0 0 24 24" xml:space="preserve">
<path d="M9,21.5c-0.4375,0-0.8535156-0.1914062-1.1386719-0.5234375l-6-7
	c-0.5390625-0.6289062-0.4658203-1.5761719,0.1630859-2.1152344c0.6279297-0.5380859,1.5751953-0.4658203,2.1142578,0.1621094
	l4.8212891,5.625L19.8300781,4.0625c0.5175781-0.6464844,1.4609375-0.7509766,2.1074219-0.2333984
	S22.6894531,5.2900391,22.171875,5.9375l-12,15C9.8925781,21.2861328,9.4726562,21.4921875,9.0253906,21.5
	C9.0175781,21.5,9.0087891,21.5,9,21.5z"/>
<g>
	<path d="M4.8974609,11.3720703L5,11.4921875V9h9.5976562l1.5996094-2H3v3.5009766
		C3.7304688,10.5009766,4.421875,10.8183594,4.8974609,11.3720703z"/>
	<path d="M16,15.2529297V20h-3.7978516l-1.25,1.5625c-0.1357422,0.1689453-0.2939453,0.3115234-0.4638672,0.4375H18v-9.2480469
		L16,15.2529297z"/>
	<path d="M7.1025391,21.6279297L5.7070312,20H5v-0.8251953l-2-2.3330078V22h4.5
		C7.3564453,21.8916016,7.2226562,21.7675781,7.1025391,21.6279297z"/>
</g>
<path d="M9,21.5c-0.4375,0-0.8535156-0.1914062-1.1386719-0.5234375l-6-7
	c-0.5390625-0.6289062-0.4658203-1.5761719,0.1630859-2.1152344c0.6279297-0.5380859,1.5751953-0.4658203,2.1142578,0.1621094
	l4.8212891,5.625L19.8300781,4.0625c0.5175781-0.6464844,1.4609375-0.7509766,2.1074219-0.2333984
	S22.6894531,5.2900391,22.171875,5.9375l-12,15C9.8925781,21.2861328,9.4726562,21.4921875,9.0253906,21.5
	C9.0175781,21.5,9.0087891,21.5,9,21.5z"/>
</svg>
