<?xml version="1.0" encoding="utf-8"?>
<!-- Generator: Adobe Illustrator 16.0.5, SVG Export Plug-In . SVG Version: 6.00 Build 0)  -->
<!DOCTYPE svg PUBLIC "-//W3C//DTD SVG 1.1//EN" "http://www.w3.org/Graphics/SVG/1.1/DTD/svg11.dtd">
<svg version="1.1" id="Layer_1" xmlns="http://www.w3.org/2000/svg" xmlns:xlink="http://www.w3.org/1999/xlink" x="0px" y="0px"
	 width="24px" height="24px" viewBox="0 0 24 24" enable-background="new 0 0 24 24" xml:space="preserve">
<path d="M21.8300781,4.5566406H9.3076172L9.1782227,8.6494141h0.5400391
	c0.2241211-1.1767578,0.5571289-1.9414062,1.0004883-2.2929688c0.4433594-0.3496094,1.2773438-0.5234375,2.503418-0.5234375
	h1.2431641v10.9736328c0,0.9462891-0.1152344,1.5371094-0.3452148,1.7714844
	c-0.2314453,0.2324219-0.8154297,0.3876953-1.7529297,0.4589844v0.40625h6.4570312v-0.40625
	c-0.9013672-0.0654297-1.4863281-0.1962891-1.7529297-0.4013672c-0.2661133-0.2011719-0.3999023-0.7255859-0.3999023-1.5712891
	V5.8330078h1.2324219c1.2836914,0,2.1254883,0.1777344,2.5253906,0.5283203
	c0.4003906,0.3564453,0.730957,1.1171875,0.9902344,2.2880859h0.5297852L21.8300781,4.5566406z"/>
<circle cx="5.0834961" cy="14.0019531" r="3.0097656"/>
</svg>
