<?xml version="1.0" encoding="utf-8"?>
<!-- Generator: Adobe Illustrator 16.0.5, SVG Export Plug-In . SVG Version: 6.00 Build 0)  -->
<!DOCTYPE svg PUBLIC "-//W3C//DTD SVG 1.1//EN" "http://www.w3.org/Graphics/SVG/1.1/DTD/svg11.dtd">
<svg version="1.1" id="Layer_1" xmlns="http://www.w3.org/2000/svg" xmlns:xlink="http://www.w3.org/1999/xlink" x="0px" y="0px"
	 width="24px" height="24px" viewBox="0 0 24 24" enable-background="new 0 0 24 24" xml:space="preserve">
<path fill="#231815" d="M21.5146484,7.1425781c-0.4746094-0.2841797-1.0878906-0.1308594-1.3720703,0.3427734l-5.2353516,8.7246094
	L9.7998047,9.4003906C9.6181641,9.1572266,9.3359375,9.0107422,9.0322266,9.0009766
	C8.7275391,8.9746094,8.4375,9.1191406,8.2412109,9.3496094l-6,7c-0.3603516,0.4189453-0.3115234,1.0498047,0.1083984,1.4091797
	c0.4199219,0.3603516,1.0507812,0.3134766,1.4091797-0.1083984l5.1894531-6.0527344l5.2519531,7.0019531
	C14.3896484,18.8525391,14.6865234,19,15,19c0.0166016,0,0.0341797,0,0.0517578-0.0009766
	c0.3320312-0.0175781,0.6347656-0.1992188,0.8056641-0.484375l6-10C22.1416016,8.0410156,21.9882812,7.4267578,21.5146484,7.1425781
	z"/>
</svg>
