<?xml version="1.0" encoding="utf-8"?>
<!-- Generator: Adobe Illustrator 16.0.5, SVG Export Plug-In . SVG Version: 6.00 Build 0)  -->
<!DOCTYPE svg PUBLIC "-//W3C//DTD SVG 1.1//EN" "http://www.w3.org/Graphics/SVG/1.1/DTD/svg11.dtd">
<svg version="1.1" id="Layer_1" xmlns="http://www.w3.org/2000/svg" xmlns:xlink="http://www.w3.org/1999/xlink" x="0px" y="0px"
	 width="24px" height="24px" viewBox="0 0 24 24" enable-background="new 0 0 24 24" xml:space="preserve">
<g>
	<path d="M12.9150391,12c0-0.3271484-0.1064453-0.6552734-0.3212891-0.9277344l-2.8652344-3.640625l-2.8642578-3.640625
		c-0.2558594-0.3242188-0.6191406-0.515625-1.0009766-0.5605469C5.4824219,3.1845703,5.0839844,3.2841797,4.7578125,3.5410156
		c-0.3261719,0.2558594-0.5166016,0.6191406-0.5625,1C4.1503906,4.9228516,4.25,5.3212891,4.5068359,5.6464844l2.4990234,3.1777344
		L9.5058594,12l-2.5,3.1767578l-2.4990234,3.1767578C4.25,18.6796875,4.1503906,19.078125,4.1953125,19.4589844
		c0.0458984,0.3808594,0.2363281,0.7441406,0.5625,1.0009766c0.1376953,0.1083984,0.2880859,0.1884766,0.4443359,0.2421875
		C5.359375,20.7548828,5.5214844,20.78125,5.6845703,20.78125c0.2216797,0,0.4433594-0.0488281,0.6455078-0.1455078
		c0.2021484-0.0957031,0.3867188-0.2392578,0.5341797-0.4267578l2.8642578-3.640625l2.8652344-3.640625
		C12.8085938,12.65625,12.9150391,12.328125,12.9150391,12z"/>
	<path d="M19.4931641,11.0722656l-2.8642578-3.640625l-2.8652344-3.640625c-0.2558594-0.3242188-0.6191406-0.515625-1-0.5605469
		c-0.3808594-0.0458984-0.7792969,0.0537109-1.1064453,0.3105469c-0.3251953,0.2558594-0.5166016,0.6191406-0.5615234,1
		c-0.0458984,0.3818359,0.0546875,0.7802734,0.3105469,1.1054688l2.5,3.1777344L16.4052734,12L13.90625,15.1767578l-2.5,3.1767578
		c-0.2558594,0.3261719-0.3564453,0.7246094-0.3105469,1.1054688c0.0449219,0.3808594,0.2363281,0.7441406,0.5615234,1.0009766
		c0.1376953,0.1083984,0.2880859,0.1884766,0.4443359,0.2421875c0.1572266,0.0527344,0.3203125,0.0791016,0.4824219,0.0791016
		c0.2226562,0,0.4433594-0.0488281,0.6455078-0.1455078c0.2021484-0.0957031,0.3857422-0.2392578,0.5341797-0.4267578
		l2.8652344-3.640625l2.8642578-3.640625C19.7070312,12.65625,19.8144531,12.328125,19.8144531,12
		C19.8144531,11.6728516,19.7070312,11.3447266,19.4931641,11.0722656z"/>
</g>
</svg>
